<svg xmlns="http://www.w3.org/2000/svg" viewBox="0 0 128.72 39.57"><defs><style>.cls-1{fill:#bacd74;}</style></defs><g id="Layer_2" data-name="Layer 2"><g id="Layer_1-2" data-name="Layer 1"><path class="cls-1" d="M11.37,31.15a24.32,24.32,0,0,0,4.13,1.06,18.72,18.72,0,0,0,4.15.26,13.57,13.57,0,0,0,4-.77,12,12,0,0,0,1.82-.84,10.32,10.32,0,0,0,1.64-1.12,7.19,7.19,0,0,0,2.25-3.06,5.27,5.27,0,0,0,0-3.67,3.34,3.34,0,0,0-1-1.48,2.37,2.37,0,0,0-.76-.42l-.21-.05-.22,0a1.62,1.62,0,0,0-.22,0h-.23a1.64,1.64,0,0,0-.81.31,1.22,1.22,0,0,0-.49.72,1.21,1.21,0,0,0,.11.91,1.34,1.34,0,0,0,.78.63,1.42,1.42,0,0,1-1-.48A1.56,1.56,0,0,1,24.91,22a1.78,1.78,0,0,1,.51-1.13,2.31,2.31,0,0,1,1.08-.62,2.82,2.82,0,0,1,.31-.07l.3,0h.32l.32,0a3.2,3.2,0,0,1,1.18.46,4.14,4.14,0,0,1,.94.82,4.87,4.87,0,0,1,.66,1,6.37,6.37,0,0,1,.29,4.7,7.64,7.64,0,0,1-1.08,2.13A9.63,9.63,0,0,1,28.14,31a12.05,12.05,0,0,1-4,2.16,13.05,13.05,0,0,1-4.46.59A16.21,16.21,0,0,1,15.31,33a18,18,0,0,1-2-.8A12.56,12.56,0,0,1,11.37,31.15Z"/><path class="cls-1" d="M113,36.69a9.61,9.61,0,0,1-1.51-.2,11,11,0,0,1-1.49-.42,11.32,11.32,0,0,1-2.77-1.46A9.33,9.33,0,0,1,105,32.29a8.58,8.58,0,0,1-1.26-3,6.89,6.89,0,0,1-.12-1.7,5.65,5.65,0,0,1,.38-1.7,4.64,4.64,0,0,1,2.37-2.52,3.34,3.34,0,0,1,1.78-.28,2.36,2.36,0,0,1,.89.31l.2.13.18.16a2.52,2.52,0,0,1,.3.35,1.86,1.86,0,0,1,.31.89,1.29,1.29,0,0,1-.26.88,1.16,1.16,0,0,1-.74.45,1,1,0,0,1-.76-.21.91.91,0,0,0,.69,0,.82.82,0,0,0,.42-.44.93.93,0,0,0-.29-1,1.72,1.72,0,0,0-2.14,0,3.5,3.5,0,0,0-1.48,1.91,5,5,0,0,0-.11,2.52,7.49,7.49,0,0,0,.38,1.28,9.26,9.26,0,0,0,.59,1.23A9.55,9.55,0,0,0,108,33.6a14.23,14.23,0,0,0,2.29,1.74A19.38,19.38,0,0,0,113,36.69Z"/><path class="cls-1" d="M69.84,25.42A17.9,17.9,0,0,0,71.68,24a10.52,10.52,0,0,0,1.52-1.62,7.91,7.91,0,0,0,1-1.82c.07-.16.11-.33.17-.49a2.25,2.25,0,0,1,.08-.24l0-.26c0-.16.08-.33.11-.5l0-.25v-.25a3.72,3.72,0,0,0-.33-1.83,2.66,2.66,0,0,0-1.26-1.26,1.73,1.73,0,0,0-.82-.17,1,1,0,0,0-.7.34.65.65,0,0,0-.14.74.63.63,0,0,0,.87.27.79.79,0,0,1-.57.28,1,1,0,0,1-.66-.26,1.13,1.13,0,0,1-.33-.68,1.53,1.53,0,0,1,.13-.77,2.8,2.8,0,0,1,.2-.32l.12-.15.15-.14a2,2,0,0,1,.69-.37,2.75,2.75,0,0,1,1.48,0A3.72,3.72,0,0,1,75.72,16a4.57,4.57,0,0,1,.51,1.31,5.28,5.28,0,0,1,.11,1.36A6.18,6.18,0,0,1,76.12,20l-.08.32c0,.1-.08.2-.11.31s-.15.41-.25.6a7.11,7.11,0,0,1-1.52,2.06,8,8,0,0,1-2,1.42l-.55.26c-.19.07-.38.15-.57.2A5.89,5.89,0,0,1,69.84,25.42Z"/><path class="cls-1" d="M70.36,25.22a5.67,5.67,0,0,1-1,.61l-.55.25-.57.2a8.32,8.32,0,0,1-2.45.4,7.57,7.57,0,0,1-2.52-.42,6.46,6.46,0,0,1-.6-.27l-.3-.14-.28-.17A5.67,5.67,0,0,1,61,24.9a5.34,5.34,0,0,1-.88-1.06,4.49,4.49,0,0,1-.55-1.29A3.73,3.73,0,0,1,60,19.76a2.61,2.61,0,0,1,1.06-1,1.92,1.92,0,0,1,.75-.22H62l.2,0a1.61,1.61,0,0,1,.36.1,1.34,1.34,0,0,1,.63.45,1.14,1.14,0,0,1,.24.72,1,1,0,0,1-.29.65.82.82,0,0,1-.6.19.65.65,0,0,0,.43-.8.67.67,0,0,0-.62-.43.94.94,0,0,0-.73.24,1.83,1.83,0,0,0-.48.7,2.69,2.69,0,0,0,0,1.77,3.7,3.7,0,0,0,1,1.56l.18.16.2.16c.13.1.28.19.42.29l.21.15.23.12.45.23a7.55,7.55,0,0,0,2,.58,10.75,10.75,0,0,0,2.21.1A17,17,0,0,0,70.36,25.22Z"/><path class="cls-1" d="M14.41,13.94a1.1,1.1,0,0,0,.31.81,1.09,1.09,0,0,0,.79.33,1.52,1.52,0,0,0,1.38-.91,1.66,1.66,0,0,0,.11-.85,2,2,0,0,0-.27-.82,2,2,0,0,0-1.34-1,2.44,2.44,0,0,0-.85,0,3.28,3.28,0,0,0-.83.22,3,3,0,0,0-.73.45,2.9,2.9,0,0,0-.58.63A3.15,3.15,0,0,0,11.94,14a3,3,0,0,0,0,.42,4.36,4.36,0,0,0,.31,1.68,4.19,4.19,0,0,0,2.39,2.32,4.13,4.13,0,0,0,1.67.27,5.78,5.78,0,0,0,1.7-.29,5.93,5.93,0,0,0,2.78-1.9A5.48,5.48,0,0,0,21.63,15l.09-.19.06-.2c0-.14.09-.27.12-.41a6.13,6.13,0,0,0,.14-.84A8.06,8.06,0,0,0,21.62,10c0-.14-.11-.26-.16-.4l-.17-.39c-.13-.25-.28-.5-.42-.75s-.32-.47-.49-.69L20.1,7.4a2.87,2.87,0,0,0-.29-.31A10.08,10.08,0,0,0,13.72,4.2a10.61,10.61,0,0,0-3.42.15A10,10,0,0,0,7.15,5.62,11.69,11.69,0,0,0,2.69,10.7a13.39,13.39,0,0,0-1.22,6.68,13.24,13.24,0,0,0,.7,3.35A13.08,13.08,0,0,0,3.7,23.79l.23.35.27.35.53.68.13.17L5,25.5l.29.32.59.64.63.58.32.3.16.15.17.13.68.54.34.27.36.24a25.15,25.15,0,0,0,6.21,3.13,38.21,38.21,0,0,0,13.86,1.91,48.26,48.26,0,0,0,13.83-2.54,41.86,41.86,0,0,0,6.45-2.79l.77-.42.75-.45.75-.46.72-.49.73-.49.69-.52c.23-.18.48-.35.69-.53l.66-.56A16.77,16.77,0,0,0,58.71,19a17.57,17.57,0,0,0,1.1-3.23,15.35,15.35,0,0,0,.37-3.38A13.08,13.08,0,0,0,58.59,6,8.35,8.35,0,0,0,56.47,3.5a6.13,6.13,0,0,0-2.88-1.23c-.26,0-.52,0-.79-.06s-.54,0-.79,0a5,5,0,0,0-1.47.41,6.53,6.53,0,0,0-2.4,2.05,11,11,0,0,0-1.55,2.94A14.87,14.87,0,0,0,45.83,11a15.69,15.69,0,0,0,.66,6.74,12.56,12.56,0,0,0,3.63,5.59,13.51,13.51,0,0,0,6,2.94,21.9,21.9,0,0,0,6.91.33,23.33,23.33,0,0,0,6.67-1.86c2.19-.89,4.36-1.9,6.58-2.83a38.67,38.67,0,0,1,6.91-2.31,18.13,18.13,0,0,1,3.69-.4,12.64,12.64,0,0,1,3.71.56h0a10.86,10.86,0,0,1,3.79,1.61,9.65,9.65,0,0,1,2.83,3,10.11,10.11,0,0,1,1.38,3.86,10.47,10.47,0,0,1-.88,6,9.87,9.87,0,0,1-2.52,3.22,10.09,10.09,0,0,1-1.72,1.11l-.46.23-.48.18c-.16.06-.31.13-.47.18l-.49.14a8.68,8.68,0,0,1-1,.23c-.17,0-.34,0-.51,0a4.61,4.61,0,0,1-.52,0H89l-.51-.06-.26,0L88,39.41a4,4,0,0,1-.5-.11A7.57,7.57,0,0,1,84,37.19c-.12-.12-.22-.26-.33-.39s-.22-.27-.31-.41L83.08,36l-.24-.45-.12-.23-.1-.24c-.06-.15-.13-.31-.18-.47a6.87,6.87,0,0,1-.26-1,5.44,5.44,0,0,1,0-2,5.59,5.59,0,0,1,2.12-3.42,5.44,5.44,0,0,1,1.82-.9,4.11,4.11,0,0,1,2-.11,4.21,4.21,0,0,1,3.06,2.47l.09.24c0,.08,0,.16.08.24a4,4,0,0,1,.11.5,3.49,3.49,0,0,1,0,1,3.17,3.17,0,0,1-1,1.75,3.06,3.06,0,0,1-1.82.78,2.38,2.38,0,0,1-1.82-.73,2.11,2.11,0,0,1-.58-1.83,1.74,1.74,0,0,1,1.3-1.35,1.74,1.74,0,0,0-1.25,1.36,2,2,0,0,0,.61,1.74,2.24,2.24,0,0,0,1.73.65,2.85,2.85,0,0,0,1.69-.78,3,3,0,0,0,.86-1.64,3.22,3.22,0,0,0,0-.93,2.3,2.3,0,0,0-.12-.45,1.55,1.55,0,0,0-.07-.23l-.09-.22a3.88,3.88,0,0,0-2.85-2.21,3.83,3.83,0,0,0-1.84.14,5.25,5.25,0,0,0-1.66.86,5.1,5.1,0,0,0-1.86,3.14,5.67,5.67,0,0,0,.67,3.6l.23.41.27.38a3.37,3.37,0,0,0,.29.37c.1.11.19.24.31.35A7.4,7.4,0,0,0,86,37.88a7.58,7.58,0,0,0,1.72.7l.45.09.23,0,.23,0,.46,0h.47a3.73,3.73,0,0,0,.46,0c.15,0,.3,0,.45-.05a9.28,9.28,0,0,0,.91-.22l.45-.14.44-.17.43-.18.42-.21a9.93,9.93,0,0,0,1.55-1,9.1,9.1,0,0,0,1.27-1.36,8.51,8.51,0,0,0,1-1.59A9.1,9.1,0,0,0,97.44,32a9.41,9.41,0,0,0,.12-3.7,9.23,9.23,0,0,0-1.28-3.45,8.61,8.61,0,0,0-2.55-2.62,9.68,9.68,0,0,0-3.4-1.4h0a13.2,13.2,0,0,0-6.78-.05,38,38,0,0,0-6.66,2.29c-2.17.94-4.33,2-6.56,2.91-1.12.46-2.26.9-3.43,1.26a17.83,17.83,0,0,1-3.64.75,23.73,23.73,0,0,1-7.37-.31,15,15,0,0,1-6.73-3.24A14.1,14.1,0,0,1,45,18.19a17.31,17.31,0,0,1-.74-7.42,16.54,16.54,0,0,1,.83-3.67,13.16,13.16,0,0,1,1.77-3.38,8.22,8.22,0,0,1,3-2.54,6.36,6.36,0,0,1,2-.56c.34,0,.66,0,1,0s.66.05,1,.07a7.82,7.82,0,0,1,3.65,1.54A9.87,9.87,0,0,1,60,5.12a14.47,14.47,0,0,1,1.82,7.3,17.34,17.34,0,0,1-.42,3.73A18.58,18.58,0,0,1,60.2,19.7a18.37,18.37,0,0,1-4.47,6l-.71.6c-.24.21-.49.38-.73.56l-.74.56-.75.51-.77.51-.78.48-.79.47-.8.43A43.54,43.54,0,0,1,43,32.68a49.36,49.36,0,0,1-14.29,2.54,44.31,44.31,0,0,1-7.28-.38,35.48,35.48,0,0,1-7.1-1.7,26,26,0,0,1-6.52-3.37l-.38-.26L7,29.22l-.72-.58-.18-.15L6,28.33,5.62,28,5,27.38l-.62-.69L4,26.34l-.15-.17L3.73,26l-.56-.74-.28-.37-.26-.39A14.5,14.5,0,0,1,1,21.13a14.55,14.55,0,0,1,.68-10.91A12.75,12.75,0,0,1,6.62,4.75a11,11,0,0,1,3.49-1.34,11.62,11.62,0,0,1,3.72-.11,10.87,10.87,0,0,1,6.56,3.24c.11.11.2.23.3.35l.3.36c.19.25.35.52.53.78s.3.54.44.82l.17.44a2.87,2.87,0,0,1,.17.44,8.5,8.5,0,0,1,.38,3.68,5.85,5.85,0,0,1-.17.93c0,.15-.1.3-.14.45l-.08.22-.09.21a6.23,6.23,0,0,1-1,1.59,6.52,6.52,0,0,1-3.09,2,6.28,6.28,0,0,1-1.83.26,4.54,4.54,0,0,1-4.4-2.92,4.5,4.5,0,0,1-.3-1.82c0-.15,0-.31,0-.46a3.45,3.45,0,0,1,.12-.46,3,3,0,0,1,.42-.84,2.94,2.94,0,0,1,.64-.68,3,3,0,0,1,.8-.46,3.2,3.2,0,0,1,.9-.22,2.93,2.93,0,0,1,.93.07,2.27,2.27,0,0,1,1.42,1.11,2.18,2.18,0,0,1,.26.88,1.67,1.67,0,0,1-.14.91,1.57,1.57,0,0,1-1.47.91,1.1,1.1,0,0,1-.81-.35A1.14,1.14,0,0,1,14.41,13.94Z"/><path class="cls-1" d="M121,25.57a1.92,1.92,0,0,1-.51,1.17,2.56,2.56,0,0,1-1.15.66,3.46,3.46,0,0,1-2.6-.41,3.32,3.32,0,0,1-1-.94,3.77,3.77,0,0,1-.57-1.26,5.74,5.74,0,0,1-.14-1.37c0-.22,0-.45.06-.67s0-.23,0-.34l.08-.33a5,5,0,0,1,1.34-2.42A5,5,0,0,1,119,18.33a6.81,6.81,0,0,1,2.77-.06,8.27,8.27,0,0,1,2.6.94,8.52,8.52,0,0,1,2.15,1.73A8.91,8.91,0,0,1,128,23.29a10.43,10.43,0,0,1,.62,5.43,12.09,12.09,0,0,1-.68,2.66,11.27,11.27,0,0,1-1.37,2.41,11.72,11.72,0,0,1-2,2,12.71,12.71,0,0,1-2.4,1.37,13.41,13.41,0,0,1-2.63.76l-.67.1-.34,0-.34,0-.67,0h-.68a16.84,16.84,0,0,1-5.27-.93,23.47,23.47,0,0,1-8.84-5.63,38.14,38.14,0,0,1-3.41-3.92,38.43,38.43,0,0,0-3.23-3.9A12.16,12.16,0,0,0,92,20.92c-.39-.16-.79-.29-1.19-.42s-.82-.23-1.23-.32L88.32,20l-1.27-.16a16.8,16.8,0,0,1,5.11.69,12.47,12.47,0,0,1,4.5,2.63,39.33,39.33,0,0,1,3.53,3.8,37.58,37.58,0,0,0,3.45,3.67,26.82,26.82,0,0,0,4,3,20.32,20.32,0,0,0,4.47,2.06,15.77,15.77,0,0,0,4.79.8h.61l.6-.05.3,0,.3,0,.59-.09a12.5,12.5,0,0,0,2.28-.68,10.28,10.28,0,0,0,2-1.15,8.51,8.51,0,0,0,2.85-3.65,11.52,11.52,0,0,0,.61-2.29,8.83,8.83,0,0,0-.41-4.65,7.35,7.35,0,0,0-3-3.52,6.55,6.55,0,0,0-4.49-.94,4,4,0,0,0-2,1A4.22,4.22,0,0,0,116,22.29l-.09.29-.06.29a4.14,4.14,0,0,0-.09.6,4.66,4.66,0,0,0,0,1.18,3.06,3.06,0,0,0,1.2,2,3.1,3.1,0,0,0,2.3.54,2.24,2.24,0,0,0,1.11-.5A2,2,0,0,0,121,25.57Z"/><path class="cls-1" d="M73.74,23.7l.64-.46.31-.23a3.5,3.5,0,0,0,.3-.24l.6-.5.56-.53c.38-.35.7-.75,1-1.12l.47-.61a6.91,6.91,0,0,0,.44-.62,14.86,14.86,0,0,0,2.57-8.49l0-.74c0-.13,0-.25,0-.37l-.05-.37-.09-.74L80.32,8c0-.24-.1-.49-.17-.71L80,6.91,80,6.74l-.07-.16c-.1-.21-.17-.44-.28-.65s-.22-.41-.35-.61a7.51,7.51,0,0,0-1.88-2.09A7.92,7.92,0,0,0,72.12,1.6a5.53,5.53,0,0,0-.7.07l-.36.06a1.77,1.77,0,0,0-.33.08,4,4,0,0,0-1.22.52,4.39,4.39,0,0,0-1.71,2,4.61,4.61,0,0,0-.31,1.33A4.75,4.75,0,0,0,67.6,7a2.41,2.41,0,0,0,1.78,1.73,2.15,2.15,0,0,0,.67.07,1.27,1.27,0,0,0,.34,0,1.09,1.09,0,0,0,.31-.08,1.42,1.42,0,0,0,.83-1,1.38,1.38,0,0,0,0-.67.8.8,0,0,0-.38-.52.85.85,0,0,0-.68-.09.53.53,0,0,0-.34.58.58.58,0,0,1,0-.39.6.6,0,0,1,.28-.31,1,1,0,0,1,.84,0,1.16,1.16,0,0,1,.61.64,1.83,1.83,0,0,1,.09.87,1.92,1.92,0,0,1-1,1.44,2.56,2.56,0,0,1-.43.17,3.29,3.29,0,0,1-.43.09,3,3,0,0,1-.89,0,3.36,3.36,0,0,1-2.67-2.21,5.46,5.46,0,0,1,0-3.46A5.62,5.62,0,0,1,68.7,1.11,5.37,5.37,0,0,1,70.32.34a3.25,3.25,0,0,1,.42-.11l.42-.08A8.09,8.09,0,0,1,72,0a9.25,9.25,0,0,1,3.39.34,9.36,9.36,0,0,1,3,1.55,9.08,9.08,0,0,1,2.27,2.55c.14.24.27.5.4.75s.22.53.33.79l.08.2.06.21.12.41a5.88,5.88,0,0,1,.18.81l.14.81.08.82,0,.41c0,.14,0,.27,0,.41v.82c0,.27,0,.55,0,.82s0,.55-.08.81l-.14.81,0,.2,0,.2-.1.4a15.05,15.05,0,0,1-1.14,3,14.9,14.9,0,0,1-.82,1.39c-.15.22-.29.45-.46.67l-.49.63c-.16.21-.36.4-.54.6s-.36.39-.56.57a13.16,13.16,0,0,1-1.21,1A13.59,13.59,0,0,1,73.74,23.7Z"/><path class="cls-1" d="M8,4.65a13.88,13.88,0,0,0-4,3.69,13.21,13.21,0,0,0-2.19,4.85,12.63,12.63,0,0,0,0,5.23l.14.64.2.62c.07.21.12.42.2.62l.26.6A7.38,7.38,0,0,0,3.12,22c.12.17.23.35.36.51s.26.32.4.47a6.79,6.79,0,0,0,4.39,2.1,6.67,6.67,0,0,0,2.47-.27,4.22,4.22,0,0,0,.6-.2l.29-.12.26-.13a3.8,3.8,0,0,0,.92-.73,3.79,3.79,0,0,0,.9-3.38c0-.1-.05-.2-.07-.3l-.11-.3a2,2,0,0,0-.28-.51,2,2,0,0,0-.93-.73,2.39,2.39,0,0,0-1.22-.13,2.34,2.34,0,0,0-.6.19,1.32,1.32,0,0,0-.46.42,1.4,1.4,0,0,0-.16,1.28,1.52,1.52,0,0,1-.06-1.41,1.63,1.63,0,0,1,.49-.59,2.55,2.55,0,0,1,.68-.34,2.81,2.81,0,0,1,2.88.78,3,3,0,0,1,.46.67l.17.35c.05.12.09.24.13.36a4.76,4.76,0,0,1,.23,1.54,4.9,4.9,0,0,1-1.06,2.94,5.32,5.32,0,0,1-1.19,1.08l-.36.2a2.21,2.21,0,0,1-.35.16,4.7,4.7,0,0,1-.7.29,8,8,0,0,1-3,.45,8.11,8.11,0,0,1-5.5-2.53c-.17-.19-.33-.4-.5-.6s-.29-.42-.44-.63A8.29,8.29,0,0,1,1,21.55l-.28-.69c-.09-.23-.14-.47-.22-.71l-.2-.71L.2,18.71a13,13,0,0,1,.3-5.84l.24-.7A4.28,4.28,0,0,1,1,11.49a10.58,10.58,0,0,1,.64-1.31L2,9.55c.12-.21.27-.4.41-.6s.28-.39.43-.58l.48-.54A12,12,0,0,1,8,4.65Z"/><path class="cls-1" d="M63.12,20.48a.58.58,0,1,1-.58-.59A.58.58,0,0,1,63.12,20.48Z"/><path class="cls-1" d="M72.68,16.58a.59.59,0,1,1-.59-.59A.58.58,0,0,1,72.68,16.58Z"/><path class="cls-1" d="M88.11,30.35a.58.58,0,0,1-.58.59.59.59,0,1,1,0-1.17A.58.58,0,0,1,88.11,30.35Z"/><circle class="cls-1" cx="108.39" cy="25.71" r="0.76"/><circle class="cls-1" cx="120.59" cy="25.56" r="0.76"/><path class="cls-1" d="M70.89,7a.59.59,0,1,1-.58-.58A.58.58,0,0,1,70.89,7Z"/><circle class="cls-1" cx="10.06" cy="20.05" r="0.58"/><path class="cls-1" d="M26.79,23.4a.58.58,0,1,1-.58-.58A.58.58,0,0,1,26.79,23.4Z"/><circle class="cls-1" cx="14.61" cy="13.81" r="0.58"/></g></g></svg>