<svg width="19" height="22" viewBox="0 0 19 22" fill="none" xmlns="http://www.w3.org/2000/svg">
<path fill-rule="evenodd" clip-rule="evenodd" d="M12.2111 3.14094C12.0337 1.65337 10.7677 0.5 9.23238 0.5C7.69704 0.5 6.43107 1.65337 6.25365 3.14094C3.75098 4.27546 2.01016 6.79555 2.01016 9.72222V14.7399L0.339661 18.0494C0.00393805 18.7145 0.487339 19.5 1.23238 19.5H6.40309C6.81493 20.6652 7.92616 21.5 9.23238 21.5C10.5386 21.5 11.6498 20.6652 12.0617 19.5H17.2324C17.9774 19.5 18.4608 18.7145 18.1251 18.0494L16.4546 14.7399V9.72222C16.4546 6.79555 14.7138 4.27546 12.2111 3.14094ZM14.5619 15.4286L15.6075 17.5H2.85731L3.90288 15.4286C3.97342 15.2888 4.01016 15.1345 4.01016 14.978V9.72222C4.01016 6.83807 6.34823 4.5 9.23238 4.5C12.1165 4.5 14.4546 6.83807 14.4546 9.72222V14.978C14.4546 15.1345 14.4914 15.2888 14.5619 15.4286Z" fill="#535A67"/>
</svg>
