<svg width="16" height="16" viewBox="0 0 16 16" fill="none" xmlns="http://www.w3.org/2000/svg">
<path d="M2.5 10.0007H4.16663C4.44263 10.0007 4.66663 9.77673 4.66663 9.50073V7.83411C4.66663 7.55811 4.44263 7.33411 4.16663 7.33411H2.5C2.224 7.33411 2 7.55811 2 7.83411V9.50073C2 9.77673 2.224 10.0007 2.5 10.0007Z" fill="#FAFAFA"/>
<path d="M2.5 14.0007H4.16663C4.44263 14.0007 4.66663 13.7767 4.66663 13.5007V11.8341C4.66663 11.5581 4.44263 11.3341 4.16663 11.3341H2.5C2.224 11.3341 2 11.5581 2 11.8341V13.5007C2 13.7767 2.224 14.0007 2.5 14.0007Z" fill="#FAFAFA"/>
<path d="M7.16663 10.0007H8.83337C9.10938 10.0007 9.33337 9.77673 9.33337 9.50073V7.83411C9.33337 7.55811 9.10938 7.33411 8.83337 7.33411H7.16663C6.89062 7.33411 6.66663 7.55811 6.66663 7.83411V9.50073C6.66663 9.77673 6.89062 10.0007 7.16663 10.0007Z" fill="#FAFAFA"/>
<path d="M7.16663 14.0007H8.83337C9.10938 14.0007 9.33337 13.7767 9.33337 13.5007V11.8341C9.33337 11.5581 9.10938 11.3341 8.83337 11.3341H7.16663C6.89062 11.3341 6.66663 11.5581 6.66663 11.8341V13.5007C6.66663 13.7767 6.89062 14.0007 7.16663 14.0007Z" fill="#FAFAFA"/>
<path d="M11.8334 10.0007H13.5C13.776 10.0007 14 9.77673 14 9.50073V7.83411C14 7.55811 13.776 7.33411 13.5 7.33411H11.8334C11.5574 7.33411 11.3334 7.55811 11.3334 7.83411V9.50073C11.3334 9.77673 11.5574 10.0007 11.8334 10.0007Z" fill="#FAFAFA"/>
<path d="M14 2H13.3334V0.666626C13.3334 0.298706 13.0347 0 12.6666 0H12C11.632 0 11.3334 0.298706 11.3334 0.666626V2H4.66663V0.666626C4.66663 0.298706 4.36804 0 4 0H3.33337C2.96533 0 2.66663 0.298706 2.66663 0.666626V2H2C0.897339 2 0 2.89734 0 4V14C0 15.1027 0.897339 16 2 16H14C15.1027 16 16 15.1027 16 14V4C16 2.89734 15.1027 2 14 2ZM14.6666 14C14.6666 14.3673 14.3673 14.6666 14 14.6666H2C1.63269 14.6666 1.33337 14.3673 1.33337 14V6.69336H14.6666V14Z" fill="#FAFAFA"/>
</svg>
