<svg width="23" height="22" viewBox="0 0 23 22" fill="none" xmlns="http://www.w3.org/2000/svg">
<path fill-rule="evenodd" clip-rule="evenodd" d="M20.3479 21.6353C21.4261 21.3957 22.106 20.3273 21.8664 19.2491L21.1097 15.8439C21.8434 14.3503 22.2311 12.7022 22.2311 11C22.2311 4.92487 17.3062 0 11.2311 0C5.15595 0 0.231079 4.92487 0.231079 11C0.231079 17.0751 5.15595 22 11.2311 22C12.9333 22 14.5814 21.6123 16.075 20.8786L19.4801 21.6353C19.7659 21.6988 20.0621 21.6988 20.3479 21.6353ZM20.2311 11C20.2311 12.5 19.8645 13.9449 19.1734 15.2373C19.0607 15.4481 19.0272 15.6924 19.0791 15.9258L19.914 19.6829L16.1568 18.848C15.9234 18.7961 15.6792 18.8296 15.4684 18.9424C14.176 19.6335 12.7311 20 11.2311 20C6.26052 20 2.23108 15.9706 2.23108 11C2.23108 6.02944 6.26052 2 11.2311 2C16.2016 2 20.2311 6.02944 20.2311 11ZM8.23108 13C9.33565 13 10.2311 12.1046 10.2311 11C10.2311 9.89543 9.33565 9 8.23108 9C7.12651 9 6.23108 9.89543 6.23108 11C6.23108 12.1046 7.12651 13 8.23108 13ZM16.2311 11C16.2311 12.1046 15.3356 13 14.2311 13C13.1265 13 12.2311 12.1046 12.2311 11C12.2311 9.89543 13.1265 9 14.2311 9C15.3356 9 16.2311 9.89543 16.2311 11Z" fill="#535A67"/>
</svg>
