<svg width="14" height="14" viewBox="0 0 14 14" fill="none" xmlns="http://www.w3.org/2000/svg">
<path d="M11.8 0.599731C12.6821 0.599731 13.4 1.31761 13.4 2.19973C13.4 3.08186 12.6821 3.79973 11.8 3.79973C10.9178 3.79973 10.2 3.08186 10.2 2.19973C10.2 1.31761 10.9178 0.599731 11.8 0.599731Z" fill="white"/>
<path d="M11.8 5.40015C12.6821 5.40015 13.4 6.11802 13.4 7.00015C13.4 7.88227 12.6821 8.60015 11.8 8.60015C10.9178 8.60015 10.2 7.88227 10.2 7.00015C10.2 6.11802 10.9178 5.40015 11.8 5.40015Z" fill="white"/>
<path d="M11.8 10.1993C12.6821 10.1993 13.4 10.9172 13.4 11.7993C13.4 12.6815 12.6821 13.3993 11.8 13.3993C10.9178 13.3993 10.2 12.6815 10.2 11.7993C10.2 10.9172 10.9178 10.1993 11.8 10.1993Z" fill="white"/>
<path d="M7.00004 0.599609C7.88216 0.599609 8.60004 1.31748 8.60004 2.19961C8.60004 3.08173 7.88216 3.79961 7.00004 3.79961C6.11791 3.79961 5.40004 3.08173 5.40004 2.19961C5.40004 1.31748 6.11791 0.599609 7.00004 0.599609Z" fill="white"/>
<path d="M7.00004 5.40015C7.88216 5.40015 8.60004 6.11802 8.60004 7.00015C8.60004 7.88227 7.88216 8.60015 7.00004 8.60015C6.11791 8.60015 5.40004 7.88227 5.40004 7.00015C5.40004 6.11802 6.11791 5.40015 7.00004 5.40015Z" fill="white"/>
<path d="M7.00004 10.1993C7.88216 10.1993 8.60004 10.9172 8.60004 11.7993C8.60004 12.6815 7.88216 13.3993 7.00004 13.3993C6.11791 13.3993 5.40004 12.6815 5.40004 11.7993C5.40004 10.9172 6.11791 10.1993 7.00004 10.1993Z" fill="white"/>
<path d="M2.19987 3.79961C1.31774 3.79961 0.599865 3.08173 0.599865 2.19961C0.599865 1.31748 1.31774 0.599609 2.19987 0.599609C3.08199 0.599609 3.79987 1.31748 3.79987 2.19961C3.79987 3.08173 3.08199 3.79961 2.19987 3.79961Z" fill="white"/>
<path d="M2.19987 5.40015C3.08199 5.40015 3.79987 6.11802 3.79987 7.00015C3.79987 7.88227 3.08199 8.60015 2.19987 8.60015C1.31774 8.60015 0.599865 7.88227 0.599865 7.00015C0.599865 6.11802 1.31774 5.40015 2.19987 5.40015Z" fill="white"/>
<path d="M2.19987 10.1993C3.08199 10.1993 3.79987 10.9172 3.79987 11.7993C3.79987 12.6815 3.08199 13.3993 2.19987 13.3993C1.31774 13.3993 0.599865 12.6815 0.599865 11.7993C0.599865 10.9172 1.31774 10.1993 2.19987 10.1993Z" fill="white"/>
</svg>
