<svg width="16" height="13" viewBox="0 0 16 13" fill="none" xmlns="http://www.w3.org/2000/svg">
<path d="M13.0196 3.10751H7.24706L6.09882 1.7428C6.0602 1.69637 6.00231 1.67033 5.94196 1.67221H1.28471C0.573647 1.67739 0 2.25527 0 2.96633V11.3601C0.000862745 12.0735 0.579059 12.6517 1.29255 12.6526H13.0196C13.7331 12.6517 14.3113 12.0735 14.3122 11.3601V4.40006C14.3113 3.68657 13.7331 3.10837 13.0196 3.10751Z" fill="#FAFAFA"/>
<path d="M14.7152 1.43539H8.94112L7.79288 0.0706837C7.75426 0.0242523 7.69637 -0.00178689 7.63602 9.54656e-05H2.98034C2.33516 0.00115429 1.78959 0.477782 1.7019 1.11696H5.94818C6.17085 1.11641 6.38226 1.21468 6.52543 1.38519L7.50583 2.55068H13.0196C14.0394 2.55241 14.8657 3.37872 14.8674 4.39853V10.9679C15.514 10.8873 15.9994 10.338 15.9999 9.68637V2.72637C15.9983 2.01653 15.425 1.44057 14.7152 1.43539Z" fill="#FAFAFA"/>
</svg>
