<svg width="16" height="20" viewBox="0 0 16 20" fill="none" xmlns="http://www.w3.org/2000/svg">
<path d="M8.87942 19.1438C12.5686 18.7305 15.5251 15.7814 15.9459 12.0923C16.4981 7.2686 12.7489 3.16246 8.04917 3.10986V0.945962C8.04917 0.825745 7.8989 0.76188 7.79747 0.837015L3.34194 4.10916C3.26681 4.16551 3.26681 4.27446 3.34194 4.33081L7.79747 7.60296C7.8989 7.67809 8.04917 7.61047 8.04917 7.49401V5.33387C11.3514 5.38646 13.9961 8.19653 13.7707 11.5551C13.5791 14.444 11.2236 16.7883 8.33469 16.9723C5.27292 17.1677 2.66948 14.9813 2.20364 12.0885C2.11723 11.5513 1.64764 11.1606 1.10666 11.1606C0.434202 11.1606 -0.091746 11.7579 0.0134435 12.4229C0.667121 16.5441 4.47273 19.6359 8.87942 19.1438Z" fill="#25272F"/>
</svg>
