<svg width="14" height="14" viewBox="0 0 14 14" fill="none" xmlns="http://www.w3.org/2000/svg">
<path d="M12.9601 -5.665e-07L0.54006 -2.36041e-08C0.241373 -1.05481e-08 6.04556e-05 0.241312 6.04687e-05 0.54L6.10116e-05 12.96C6.10246e-05 13.2587 0.241374 13.5 0.540061 13.5L12.9601 13.5C13.2587 13.5 13.5001 13.2587 13.5001 12.96L13.5001 0.539999C13.5001 0.241311 13.2587 -5.79556e-07 12.9601 -5.665e-07ZM6.41256 9.585C6.41256 9.65925 6.35181 9.72 6.27756 9.72L3.17256 9.72C3.09831 9.72 3.03756 9.65925 3.03756 9.585L3.03756 8.775C3.03756 8.70075 3.09831 8.64 3.17256 8.64L6.27756 8.64C6.35181 8.64 6.41256 8.70075 6.41256 8.775L6.41256 9.585ZM8.57256 7.155C8.57256 7.22925 8.51181 7.29 8.43756 7.29L3.17256 7.29C3.09831 7.29 3.03756 7.22925 3.03756 7.155L3.03756 6.345C3.03756 6.27075 3.09831 6.21 3.17256 6.21L8.43756 6.21C8.51181 6.21 8.57256 6.27075 8.57256 6.345L8.57256 7.155ZM10.7326 4.725C10.7326 4.79925 10.6718 4.86 10.5976 4.86L3.17256 4.86C3.09831 4.86 3.03756 4.79925 3.03756 4.725L3.03756 3.915C3.03756 3.84075 3.09831 3.78 3.17256 3.78L10.5976 3.78C10.6718 3.78 10.7326 3.84075 10.7326 3.915L10.7326 4.725Z" fill="white"/>
</svg>
