<svg width="20" height="20" viewBox="0 0 20 20" fill="none" xmlns="http://www.w3.org/2000/svg">
<path d="M19.375 0.833374H7.29167C6.94667 0.833374 6.66667 1.11337 6.66667 1.45837C6.66667 1.80337 6.94667 2.08337 7.29167 2.08337H19.375C19.72 2.08337 20 1.80337 20 1.45837C20 1.11337 19.72 0.833374 19.375 0.833374Z" fill="#525A67"/>
<path d="M19.375 3.33337H7.29167C6.94667 3.33337 6.66667 3.61337 6.66667 3.95837C6.66667 4.30337 6.94667 4.58337 7.29167 4.58337H19.375C19.72 4.58337 20 4.30337 20 3.95837C20 3.61337 19.72 3.33337 19.375 3.33337Z" fill="#525A67"/>
<path d="M19.375 8.33337H7.29167C6.94667 8.33337 6.66667 8.61337 6.66667 8.95837C6.66667 9.30337 6.94667 9.58337 7.29167 9.58337H19.375C19.72 9.58337 20 9.30337 20 8.95837C20 8.61337 19.72 8.33337 19.375 8.33337Z" fill="#525A67"/>
<path d="M19.375 10.8334H7.29167C6.94667 10.8334 6.66667 11.1134 6.66667 11.4584C6.66667 11.8034 6.94667 12.0834 7.29167 12.0834H19.375C19.72 12.0834 20 11.8034 20 11.4584C20 11.1134 19.72 10.8334 19.375 10.8334Z" fill="#525A67"/>
<path d="M19.375 15.8334H7.29167C6.94667 15.8334 6.66667 16.1134 6.66667 16.4584C6.66667 16.8034 6.94667 17.0834 7.29167 17.0834H19.375C19.72 17.0834 20 16.8034 20 16.4584C20 16.1134 19.72 15.8334 19.375 15.8334Z" fill="#525A67"/>
<path d="M19.375 18.3334H7.29167C6.94667 18.3334 6.66667 18.6134 6.66667 18.9584C6.66667 19.3034 6.94667 19.5834 7.29167 19.5834H19.375C19.72 19.5834 20 19.3034 20 18.9584C20 18.6134 19.72 18.3334 19.375 18.3334Z" fill="#525A67"/>
<path d="M2.5 5C3.88071 5 5 3.88071 5 2.5C5 1.11929 3.88071 0 2.5 0C1.11929 0 0 1.11929 0 2.5C0 3.88071 1.11929 5 2.5 5Z" fill="#525A67"/>
<path d="M2.5 12.5C3.88071 12.5 5 11.3807 5 10C5 8.61929 3.88071 7.5 2.5 7.5C1.11929 7.5 0 8.61929 0 10C0 11.3807 1.11929 12.5 2.5 12.5Z" fill="#525A67"/>
<path d="M2.5 20C3.88071 20 5 18.8807 5 17.5C5 16.1193 3.88071 15 2.5 15C1.11929 15 0 16.1193 0 17.5C0 18.8807 1.11929 20 2.5 20Z" fill="#525A67"/>
</svg>
