<svg width="131" height="20" viewBox="0 0 131 20" fill="none" xmlns="http://www.w3.org/2000/svg">
<path d="M11.558 18.246C10.3967 18.9913 8.97533 19.364 7.294 19.364C6.15 19.364 5.15333 19.1733 4.304 18.792C3.45467 18.4107 2.744 17.882 2.172 17.206C1.61733 16.53 1.20133 15.7413 0.924 14.84C0.646667 13.9387 0.508 12.968 0.508 11.928C0.508 9.88267 0.794 8.14067 1.366 6.702C1.938 5.246 2.692 4.05867 3.628 3.14C4.564 2.204 5.63 1.51933 6.826 1.086C8.03933 0.652666 9.27867 0.435999 10.544 0.435999C11.532 0.435999 12.3727 0.513999 13.066 0.669999C13.7767 0.808666 14.3313 0.973332 14.73 1.164L13.404 4.18C13.0573 3.98933 12.6413 3.85067 12.156 3.764C11.6707 3.66 11.0553 3.608 10.31 3.608C9.426 3.608 8.60267 3.79 7.84 4.154C7.07733 4.518 6.41867 5.038 5.864 5.714C5.30933 6.39 4.86733 7.21333 4.538 8.184C4.226 9.15467 4.07 10.2553 4.07 11.486C4.07 12.9593 4.434 14.112 5.162 14.944C5.90733 15.776 6.89533 16.192 8.126 16.192C8.906 16.192 9.54733 16.114 10.05 15.958C10.57 15.7847 11.0553 15.5767 11.506 15.334L11.558 18.246ZM13.0363 14.788C13.0363 13.4187 13.227 12.1707 13.6083 11.044C14.007 9.91733 14.527 8.95533 15.1683 8.158C15.827 7.36067 16.581 6.74533 17.4303 6.312C18.297 5.86133 19.1983 5.636 20.1343 5.636C20.9663 5.636 21.6683 5.766 22.2403 6.026C22.8123 6.286 23.2717 6.63267 23.6183 7.066C23.9823 7.49933 24.2423 7.99333 24.3983 8.548C24.5543 9.10267 24.6323 9.67467 24.6323 10.264C24.6323 11.616 24.4417 12.8553 24.0603 13.982C23.679 15.0913 23.1677 16.0447 22.5263 16.842C21.885 17.6393 21.1397 18.2633 20.2903 18.714C19.441 19.1473 18.5483 19.364 17.6123 19.364C16.7977 19.364 16.1043 19.234 15.5323 18.974C14.9603 18.6967 14.4837 18.3413 14.1023 17.908C13.7383 17.4747 13.4697 16.9893 13.2963 16.452C13.123 15.8973 13.0363 15.3427 13.0363 14.788ZM16.3383 14.346C16.3383 15.906 16.9017 16.686 18.0283 16.686C18.4443 16.686 18.8517 16.504 19.2503 16.14C19.649 15.776 20.0043 15.2993 20.3163 14.71C20.6283 14.1207 20.871 13.4533 21.0443 12.708C21.235 11.9627 21.3303 11.2173 21.3303 10.472C21.3303 9.77867 21.209 9.25 20.9663 8.886C20.741 8.50467 20.3077 8.314 19.6663 8.314C19.2503 8.314 18.843 8.48733 18.4443 8.834C18.0457 9.18067 17.6903 9.64 17.3783 10.212C17.0663 10.7667 16.815 11.408 16.6243 12.136C16.4337 12.864 16.3383 13.6007 16.3383 14.346ZM36.5948 13.8C36.4561 14.4587 36.3521 15.126 36.2828 15.802C36.2308 16.478 36.2048 17.1193 36.2048 17.726C36.2048 17.9687 36.2048 18.2027 36.2048 18.428C36.2221 18.636 36.2394 18.8353 36.2568 19.026H33.8908L33.5268 16.79H33.4228C33.2321 17.102 32.9808 17.414 32.6688 17.726C32.3741 18.0207 32.0448 18.298 31.6808 18.558C31.3168 18.8007 30.9268 18.9913 30.5108 19.13C30.1121 19.286 29.6961 19.364 29.2628 19.364C28.1188 19.364 27.2694 18.9913 26.7148 18.246C26.1774 17.5007 25.9088 16.504 25.9088 15.256C25.9088 13.9907 26.0648 12.7773 26.3768 11.616C26.7061 10.4547 27.2088 9.432 27.8848 8.548C28.5608 7.664 29.4101 6.962 30.4328 6.442C31.4728 5.90467 32.7034 5.636 34.1248 5.636C34.7314 5.636 35.3901 5.69667 36.1008 5.818C36.8288 5.922 37.5308 6.06933 38.2068 6.26L36.5948 13.8ZM30.4848 16.686C30.7968 16.686 31.0914 16.6253 31.3688 16.504C31.6461 16.3653 31.8974 16.192 32.1228 15.984C32.3654 15.776 32.5734 15.5507 32.7468 15.308C32.9374 15.0653 33.1021 14.84 33.2408 14.632L34.5408 8.574C34.3501 8.48733 34.1248 8.42667 33.8648 8.392C33.6221 8.34 33.3794 8.314 33.1368 8.314C32.5128 8.314 31.9581 8.50467 31.4728 8.886C30.9874 9.25 30.5714 9.73533 30.2248 10.342C29.8954 10.9313 29.6441 11.6073 29.4708 12.37C29.2974 13.1153 29.2108 13.8693 29.2108 14.632C29.2108 15.1867 29.2974 15.672 29.4708 16.088C29.6614 16.4867 29.9994 16.686 30.4848 16.686ZM48.345 8.938C48.0156 8.74733 47.669 8.61733 47.305 8.548C46.9583 8.47867 46.577 8.444 46.161 8.444C45.693 8.444 45.2336 8.6 44.783 8.912C44.3496 9.20667 43.951 9.60533 43.587 10.108C43.2403 10.5933 42.963 11.1653 42.755 11.824C42.547 12.4827 42.443 13.1587 42.443 13.852C42.443 14.736 42.6336 15.412 43.015 15.88C43.3963 16.3307 43.899 16.556 44.523 16.556C45.043 16.556 45.5196 16.478 45.953 16.322C46.4036 16.1487 46.8023 15.958 47.149 15.75L47.747 17.934C47.1923 18.35 46.5423 18.6967 45.797 18.974C45.069 19.234 44.341 19.364 43.613 19.364C42.781 19.364 42.0703 19.2427 41.481 19C40.909 18.7573 40.441 18.428 40.077 18.012C39.713 17.596 39.4443 17.1193 39.271 16.582C39.0976 16.0447 39.011 15.4813 39.011 14.892C39.011 13.436 39.219 12.136 39.635 10.992C40.051 9.848 40.597 8.886 41.273 8.106C41.9663 7.30867 42.7463 6.702 43.613 6.286C44.497 5.85267 45.3983 5.636 46.317 5.636C47.1316 5.636 47.773 5.714 48.241 5.87C48.7263 6.026 49.1596 6.19933 49.541 6.39L48.345 8.938ZM56.8758 19L58.4358 11.616C58.6091 10.8533 58.6958 10.2207 58.6958 9.718C58.6958 9.26733 58.6091 8.94667 58.4358 8.756C58.2625 8.548 57.9938 8.444 57.6298 8.444C57.3005 8.444 56.9538 8.548 56.5898 8.756C56.2258 8.964 55.8791 9.224 55.5498 9.536C55.2205 9.848 54.9171 10.186 54.6398 10.55C54.3798 10.8967 54.1805 11.2173 54.0418 11.512L52.5078 19H49.3098L53.1578 0.799999H56.3558L54.7178 8.288H54.8218C55.0471 8.01067 55.3158 7.716 55.6278 7.404C55.9571 7.092 56.3125 6.806 56.6938 6.546C57.0925 6.286 57.5171 6.06933 57.9678 5.896C58.4358 5.72267 58.9385 5.636 59.4758 5.636C60.3078 5.636 60.9491 5.844 61.3998 6.26C61.8678 6.676 62.1018 7.41267 62.1018 8.47C62.1018 9.11133 61.9978 9.926 61.7898 10.914L60.0738 19H56.8758Z" fill="white"/>
<path d="M66.9201 0.982C67.6481 0.843333 68.4195 0.739332 69.2341 0.669999C70.0661 0.583332 70.8981 0.539999 71.7301 0.539999C72.6141 0.539999 73.4288 0.643999 74.1741 0.852C74.9368 1.04267 75.5955 1.346 76.1501 1.762C76.7221 2.178 77.1641 2.71533 77.4761 3.374C77.7881 4.01533 77.9441 4.78667 77.9441 5.688C77.9441 7.04 77.7101 8.17533 77.2421 9.094C76.7741 9.99533 76.1501 10.732 75.3701 11.304C74.6075 11.8587 73.7321 12.2573 72.7441 12.5C71.7561 12.7253 70.7508 12.838 69.7281 12.838C69.6415 12.838 69.5028 12.838 69.3121 12.838C69.1388 12.838 68.9481 12.838 68.7401 12.838C68.5495 12.8207 68.3588 12.8033 68.1681 12.786C67.9948 12.7687 67.8648 12.7513 67.7781 12.734L66.4781 19H63.0981L66.9201 0.982ZM68.4541 9.666C68.5235 9.68333 68.6188 9.70067 68.7401 9.718C68.8615 9.73533 68.9915 9.75267 69.1301 9.77C69.2861 9.77 69.4248 9.77 69.5461 9.77C69.6848 9.77 69.7888 9.77 69.8581 9.77C70.4475 9.77 71.0108 9.70933 71.5481 9.588C72.1028 9.44933 72.5881 9.24133 73.0041 8.964C73.4201 8.66933 73.7495 8.288 73.9921 7.82C74.2521 7.352 74.3821 6.78 74.3821 6.104C74.3821 5.60133 74.2955 5.18533 74.1221 4.856C73.9661 4.52667 73.7495 4.27533 73.4721 4.102C73.1948 3.91133 72.8655 3.78133 72.4841 3.712C72.1201 3.64267 71.7301 3.608 71.3141 3.608C71.0021 3.608 70.6988 3.62533 70.4041 3.66C70.1268 3.67733 69.8928 3.70333 69.7021 3.738L68.4541 9.666ZM88.2393 13.8C88.1006 14.4587 87.9966 15.126 87.9273 15.802C87.8753 16.478 87.8493 17.1193 87.8493 17.726C87.8493 17.9687 87.8493 18.2027 87.8493 18.428C87.8666 18.636 87.884 18.8353 87.9013 19.026H85.5353L85.1713 16.79H85.0673C84.8766 17.102 84.6253 17.414 84.3133 17.726C84.0186 18.0207 83.6893 18.298 83.3253 18.558C82.9613 18.8007 82.5713 18.9913 82.1553 19.13C81.7566 19.286 81.3406 19.364 80.9073 19.364C79.7633 19.364 78.914 18.9913 78.3593 18.246C77.822 17.5007 77.5533 16.504 77.5533 15.256C77.5533 13.9907 77.7093 12.7773 78.0213 11.616C78.3506 10.4547 78.8533 9.432 79.5293 8.548C80.2053 7.664 81.0546 6.962 82.0773 6.442C83.1173 5.90467 84.348 5.636 85.7693 5.636C86.376 5.636 87.0346 5.69667 87.7453 5.818C88.4733 5.922 89.1753 6.06933 89.8513 6.26L88.2393 13.8ZM82.1293 16.686C82.4413 16.686 82.736 16.6253 83.0133 16.504C83.2906 16.3653 83.542 16.192 83.7673 15.984C84.01 15.776 84.218 15.5507 84.3913 15.308C84.582 15.0653 84.7466 14.84 84.8853 14.632L86.1853 8.574C85.9946 8.48733 85.7693 8.42667 85.5093 8.392C85.2666 8.34 85.024 8.314 84.7813 8.314C84.1573 8.314 83.6026 8.50467 83.1173 8.886C82.632 9.25 82.216 9.73533 81.8693 10.342C81.54 10.9313 81.2886 11.6073 81.1153 12.37C80.942 13.1153 80.8553 13.8693 80.8553 14.632C80.8553 15.1867 80.942 15.672 81.1153 16.088C81.306 16.4867 81.644 16.686 82.1293 16.686ZM95.3615 6L95.3875 8.288H95.4915C95.8728 7.59467 96.3322 7.00533 96.8695 6.52C97.4242 6.03467 98.1175 5.792 98.9495 5.792C99.3135 5.792 99.7468 5.86133 100.249 6L99.4435 8.782C99.2702 8.73 99.1055 8.68667 98.9495 8.652C98.7935 8.61733 98.6288 8.6 98.4555 8.6C97.7448 8.6 97.0862 8.834 96.4795 9.302C95.8902 9.75267 95.4395 10.2813 95.1275 10.888L93.4375 19H90.2395L92.9955 6H95.3615ZM104.274 6L104.3 8.288H104.404C104.785 7.59467 105.244 7.00533 105.782 6.52C106.336 6.03467 107.03 5.792 107.862 5.792C108.226 5.792 108.659 5.86133 109.162 6L108.356 8.782C108.182 8.73 108.018 8.68667 107.862 8.652C107.706 8.61733 107.541 8.6 107.368 8.6C106.657 8.6 105.998 8.834 105.392 9.302C104.802 9.75267 104.352 10.2813 104.04 10.888L102.35 19H99.1516L101.908 6H104.274ZM108.48 14.788C108.48 13.4187 108.67 12.1707 109.052 11.044C109.45 9.91733 109.97 8.95533 110.612 8.158C111.27 7.36067 112.024 6.74533 112.874 6.312C113.74 5.86133 114.642 5.636 115.578 5.636C116.41 5.636 117.112 5.766 117.684 6.026C118.256 6.286 118.715 6.63267 119.062 7.066C119.426 7.49933 119.686 7.99333 119.842 8.548C119.998 9.10267 120.076 9.67467 120.076 10.264C120.076 11.616 119.885 12.8553 119.504 13.982C119.122 15.0913 118.611 16.0447 117.97 16.842C117.328 17.6393 116.583 18.2633 115.734 18.714C114.884 19.1473 113.992 19.364 113.056 19.364C112.241 19.364 111.548 19.234 110.976 18.974C110.404 18.6967 109.927 18.3413 109.546 17.908C109.182 17.4747 108.913 16.9893 108.74 16.452C108.566 15.8973 108.48 15.3427 108.48 14.788ZM111.782 14.346C111.782 15.906 112.345 16.686 113.472 16.686C113.888 16.686 114.295 16.504 114.694 16.14C115.092 15.776 115.448 15.2993 115.76 14.71C116.072 14.1207 116.314 13.4533 116.488 12.708C116.678 11.9627 116.774 11.2173 116.774 10.472C116.774 9.77867 116.652 9.25 116.41 8.886C116.184 8.50467 115.751 8.314 115.11 8.314C114.694 8.314 114.286 8.48733 113.888 8.834C113.489 9.18067 113.134 9.64 112.822 10.212C112.51 10.7667 112.258 11.408 112.068 12.136C111.877 12.864 111.782 13.6007 111.782 14.346ZM122.158 6H123.848L124.368 3.556L127.774 2.594L127.046 6H130.088L129.49 8.678H126.474L125.2 14.554C125.096 15.022 125.044 15.4033 125.044 15.698C125.044 16.0793 125.131 16.3393 125.304 16.478C125.477 16.6167 125.737 16.686 126.084 16.686C126.413 16.686 126.708 16.6513 126.968 16.582C127.245 16.5127 127.531 16.4 127.826 16.244V18.636C127.635 18.74 127.401 18.844 127.124 18.948C126.864 19.0347 126.578 19.104 126.266 19.156C125.954 19.2253 125.633 19.2773 125.304 19.312C124.975 19.3467 124.671 19.364 124.394 19.364C123.51 19.364 122.825 19.1647 122.34 18.766C121.872 18.35 121.638 17.726 121.638 16.894C121.638 16.7207 121.647 16.5387 121.664 16.348C121.699 16.1573 121.733 15.958 121.768 15.75L123.276 8.678H121.534L122.158 6Z" fill="#48B8FF"/>
</svg>
