<svg xmlns="http://www.w3.org/2000/svg" viewBox="0 0 131.33 131.33"><defs><style>.cls-1{fill:#f7f7f7;}</style></defs><g id="Layer_2" data-name="Layer 2"><g id="Layer_1-2" data-name="Layer 1"><path class="cls-1" d="M122.57,65.67a14.21,14.21,0,0,0,7.7-9.29,14.71,14.71,0,0,0-3.82-14.31L113.92,29.56a5.58,5.58,0,0,0-4-1.65H109a5.61,5.61,0,0,1-5.62-5.62v-.64a6.25,6.25,0,0,0-1.84-4.44L89.26,4.88A14.75,14.75,0,0,0,75,1.06a14.19,14.19,0,0,0-9.28,7.7,14.19,14.19,0,0,0-9.29-7.7A14.71,14.71,0,0,0,42.07,4.88L29.76,17.2a6.25,6.25,0,0,0-1.84,4.44v.65A5.6,5.6,0,0,1,22.3,27.9h-.91a5.6,5.6,0,0,0-4,1.64L4.88,42.07A14.71,14.71,0,0,0,1.06,56.38a14.19,14.19,0,0,0,7.7,9.29A14.19,14.19,0,0,0,1.06,75,14.75,14.75,0,0,0,4.88,89.26l12.33,12.32a6.25,6.25,0,0,0,4.44,1.84h.64A5.61,5.61,0,0,1,27.91,109V110a5.58,5.58,0,0,0,1.65,4l12.51,12.53a14.71,14.71,0,0,0,14.31,3.82,14.21,14.21,0,0,0,9.29-7.7,14.16,14.16,0,0,0,9.28,7.7,14.75,14.75,0,0,0,14.31-3.82l12.53-12.54a5.61,5.61,0,0,0,1.65-4V109a5.6,5.6,0,0,1,5.6-5.62h.65a6.25,6.25,0,0,0,4.44-1.84l12.32-12.31A14.75,14.75,0,0,0,130.27,75,14.16,14.16,0,0,0,122.57,65.67ZM67,11.64a11.85,11.85,0,0,1,8.51-8.37A12.44,12.44,0,0,1,87.64,6.51L99.2,18.06a6.29,6.29,0,0,1,1.94,4.46,7.58,7.58,0,0,0,7.68,7.68,6.3,6.3,0,0,1,4.45,1.94l11.55,11.55a12.4,12.4,0,0,1,3.24,12.09,11.84,11.84,0,0,1-8.37,8.51l-.94.23a3.92,3.92,0,0,1-3.44-1.93,10.7,10.7,0,0,0-2.51-2.93c-3.85-3.21-9.66-4.78-16-4.4.24-.17.46-.35.68-.52a15.62,15.62,0,0,0,5.48-16.51l0-.2a1.15,1.15,0,0,0-1.43-.76,1.13,1.13,0,0,0-.77,1.41l0,.19A13.31,13.31,0,0,1,96,53,21,21,0,0,1,92.4,55.3a25.11,25.11,0,0,1-3.64,1.35,69.38,69.38,0,0,0-15.42,6.29,1.17,1.17,0,0,1-1.63-.51h0A1.2,1.2,0,0,1,71.91,61l.66-.66a20.45,20.45,0,0,1,7.74-4.84A38,38,0,0,0,89.41,51c4-2.81,6.67-6.75,7-10.5a6.06,6.06,0,0,0,0-.73,5.63,5.63,0,0,0-.61-2.65,6.92,6.92,0,0,1,4.63-1.94c1.69.07,3.29,1.09,4.77,3S106.82,42.34,107,45c.2,3.86.44,8.22,5.2,12.09a10.21,10.21,0,0,0,9,1.9A6.91,6.91,0,0,0,124,57.2a8,8,0,0,0,2.07-3.67A8.25,8.25,0,0,0,123.44,45c-2.14-1.9-4.77-2.52-6.87-1.61a5.6,5.6,0,0,0-3.69,5.53,5.34,5.34,0,0,0,3.4,4.83,4,4,0,0,0,3.87-.54,3.59,3.59,0,0,0,1.28-2.85,1.11,1.11,0,0,0-1.22-1,1.17,1.17,0,0,0-1.07,1.2,1.22,1.22,0,0,1-.48.89,2,2,0,0,1-1.73.09,3.12,3.12,0,0,1-1.76-2.76,3.28,3.28,0,0,1,2.29-3.31c1.27-.54,3-.06,4.47,1.24a6,6,0,0,1,2,6.16,5.24,5.24,0,0,1-3.47,3.87,8,8,0,0,1-6.83-1.49c-4-3.24-4.16-6.74-4.35-10.44-.15-2.75-.31-5.58-2.18-8S103,33,100.56,32.9a7.1,7.1,0,0,0-2.44.33,7.29,7.29,0,0,0,.32-2.46c-.09-2.39-1.42-4.59-3.93-6.5s-5.27-2-8-2.17c-3.71-.21-7.21-.4-10.45-4.37a7.94,7.94,0,0,1-1.48-6.83,5.22,5.22,0,0,1,3.86-3.47,6.09,6.09,0,0,1,6.18,2c1.28,1.45,1.76,3.22,1.22,4.47a3.28,3.28,0,0,1-3.3,2.29,3.1,3.1,0,0,1-2.77-1.76,2,2,0,0,1,.09-1.73,1.32,1.32,0,0,1,.88-.48,1.16,1.16,0,0,0,1.26-1,1.14,1.14,0,0,0-1-1.24,3.56,3.56,0,0,0-2.85,1.27,4,4,0,0,0-.54,3.86,5.35,5.35,0,0,0,4.83,3.4,5.6,5.6,0,0,0,5.55-3.67c.89-2.11.27-4.75-1.63-6.89A8.31,8.31,0,0,0,77.8,5.24a7.44,7.44,0,0,0-5.42,5,10.21,10.21,0,0,0,1.9,9c3.88,4.76,8.25,5,12.1,5.2,2.61.15,4.86.27,6.75,1.71s3,3.09,3,4.78a7,7,0,0,1-1.93,4.61,6.12,6.12,0,0,0-3.4-.56c-3.75.33-7.69,3-10.5,7A38.05,38.05,0,0,0,75.8,51,20.36,20.36,0,0,1,71,58.76l-.66.66a1.19,1.19,0,0,1-1.39.22h0A1.19,1.19,0,0,1,68.39,58a69.35,69.35,0,0,0,6.3-15.44A25.93,25.93,0,0,1,76,38.92a20.57,20.57,0,0,1,2.36-3.61,13.28,13.28,0,0,1,14.08-4.72l.18,0a1.14,1.14,0,1,0,.65-2.19l-.19-.05a15.63,15.63,0,0,0-16.52,5.48c-.17.23-.34.44-.51.68.37-6.35-1.19-12.17-4.41-16A10.73,10.73,0,0,0,68.74,16a3.7,3.7,0,0,1-.79-.59,4,4,0,0,1-1.14-2.85C66.88,12.27,67,11.94,67,11.64ZM91.86,65.79a2.7,2.7,0,0,1-1,1.56c-1.5,1.26-4.53,2.33-8.59,1.6a31.22,31.22,0,0,1-9-3.28,31.2,31.2,0,0,1,9-3.29,14.82,14.82,0,0,1,2.57-.24,9.53,9.53,0,0,1,6,1.84,2.84,2.84,0,0,1,1,1.56s0,.08,0,.13S91.86,65.75,91.86,65.79Zm.41,3.32a0,0,0,0,0,0,0,9.12,9.12,0,0,1,5.84-2.28h15.55a7.34,7.34,0,0,1-2.34,3.1c-3.19,2.68-9.62,5-18.12,3.44a52.64,52.64,0,0,1-7.37-1.91A11.24,11.24,0,0,0,92.27,69.11Zm5.86-4.59a9.07,9.07,0,0,1-5.82-2.27l0,0a11.08,11.08,0,0,0-6.45-2.31A54.13,54.13,0,0,1,93.22,58a31,31,0,0,1,5.33-.5c5.86,0,10.31,1.86,12.79,3.94a7.4,7.4,0,0,1,2.34,3.1ZM85.51,45.82a3.15,3.15,0,0,0-2.57-.77,6,6,0,0,0-2.29.71c.47-.85,1-1.7,1.56-2.54,2.87-4.12,6.44-5.82,8.81-6a3.2,3.2,0,0,1,2.53.58,3.26,3.26,0,0,1,.59,2.53c-.21,2.38-1.9,5.95-6,8.82-.84.57-1.68,1.08-2.54,1.55a5.8,5.8,0,0,0,.71-2.29,2.68,2.68,0,0,0,0-.4A3,3,0,0,0,85.51,45.82Zm-2.37,1.51c.48,0,.71.07.75.12a1,1,0,0,1,.11.74A5.68,5.68,0,0,1,81.34,52a16.59,16.59,0,0,1-4,2,16.72,16.72,0,0,1,2-4A5.73,5.73,0,0,1,83.14,47.33ZM69.76,65.67a4.1,4.1,0,1,1-4.09-4.1A4.09,4.09,0,0,1,69.76,65.67Zm-3-48A7.42,7.42,0,0,1,69.91,20c2.68,3.2,5,9.62,3.44,18.12a49.46,49.46,0,0,1-1.93,7.4,11.11,11.11,0,0,0-2.31-6.45s0,0,0,0a9,9,0,0,1-2.28-5.83ZM65.67,39.5s.08,0,.12,0a2.81,2.81,0,0,1,1.56,1.06c1.26,1.49,2.33,4.52,1.6,8.59a30.56,30.56,0,0,1-3.28,8.94,31.23,31.23,0,0,1-3.29-8.94c-.73-4.07.35-7.1,1.61-8.59a2.68,2.68,0,0,1,1.55-1.06S65.62,39.51,65.67,39.5Zm-5.76,6A53.75,53.75,0,0,1,58,38.11c-1.53-8.5.77-14.92,3.44-18.12a7.48,7.48,0,0,1,3.1-2.34V33.2A9.09,9.09,0,0,1,62.25,39s0,0,0,0A11.11,11.11,0,0,0,59.91,45.51Zm-57,7.86a12.35,12.35,0,0,1,3.62-9.68L18.07,32.13a6.25,6.25,0,0,1,4.45-1.94,7.57,7.57,0,0,0,7.68-7.68,6.29,6.29,0,0,1,1.94-4.45L43.69,6.51A12.44,12.44,0,0,1,55.78,3.27a11.85,11.85,0,0,1,8.51,8.37c.08.3.16.63.23.94A3.92,3.92,0,0,1,62.59,16a10.87,10.87,0,0,0-2.93,2.51c-3.21,3.85-4.78,9.67-4.4,16-.19-.22-.35-.45-.52-.68a15.62,15.62,0,0,0-16.51-5.48l-.2.05a1.14,1.14,0,0,0,.65,2.19l.19,0A13.29,13.29,0,0,1,53,35.31a20.68,20.68,0,0,1,2.35,3.63,27.29,27.29,0,0,1,1.34,3.61A69.35,69.35,0,0,0,62.94,58a1.18,1.18,0,0,1-.51,1.64h0A1.19,1.19,0,0,1,61,59.42l-.65-.66A20.39,20.39,0,0,1,55.53,51,37.49,37.49,0,0,0,51,41.92c-2.81-4.05-6.73-6.67-10.5-7a6.09,6.09,0,0,0-3.39.56,6.89,6.89,0,0,1-1.93-4.62c.07-1.68,1.1-3.28,3-4.77s4.14-1.57,6.76-1.71c3.49-.19,7.42-.4,11-4a13,13,0,0,0,1.08-1.21,10.21,10.21,0,0,0,1.9-9,7.43,7.43,0,0,0-5.42-5A8.26,8.26,0,0,0,45,7.89c-1.9,2.14-2.52,4.77-1.61,6.88a5.59,5.59,0,0,0,5.53,3.68,5.34,5.34,0,0,0,4.83-3.4,4,4,0,0,0-.54-3.86,3.53,3.53,0,0,0-2.85-1.28,1.1,1.1,0,0,0-1,1.21,1.17,1.17,0,0,0,1.2,1.07,1.25,1.25,0,0,1,.89.48,2,2,0,0,1,.11,1.73,3.17,3.17,0,0,1-2.78,1.76,3.28,3.28,0,0,1-3.31-2.29c-.54-1.27-.06-3,1.24-4.47a6.06,6.06,0,0,1,6.16-2,5.24,5.24,0,0,1,3.87,3.47,8,8,0,0,1-1.49,6.83c-3.23,4-6.74,4.16-10.44,4.36-2.75.15-5.58.31-8,2.17S33,28.37,32.9,30.77a7.2,7.2,0,0,0,.33,2.45,7,7,0,0,0-2.46-.32c-2.39.09-4.59,1.41-6.5,3.92s-2,5.27-2.17,8c-.21,3.7-.41,7.2-4.37,10.44a8,8,0,0,1-6.83,1.49A5.24,5.24,0,0,1,7.43,52.9a6.12,6.12,0,0,1,2-6.18c1.45-1.28,3.22-1.76,4.47-1.22a3.28,3.28,0,0,1,2.29,3.31,3.09,3.09,0,0,1-1.76,2.76,2,2,0,0,1-1.73-.09,1.28,1.28,0,0,1-.48-.88,1.14,1.14,0,0,0-2.27-.22,3.52,3.52,0,0,0,1.27,2.84,4,4,0,0,0,3.86.55,5.34,5.34,0,0,0,3.4-4.83,5.61,5.61,0,0,0-3.67-5.54C12.67,42.5,10,43.12,7.89,45a8.34,8.34,0,0,0-2.65,8.52,7.44,7.44,0,0,0,5,5.42,10.21,10.21,0,0,0,9-1.9A13.07,13.07,0,0,0,20.38,56c3.59-3.58,3.81-7.51,4-11,.15-2.61.27-4.86,1.71-6.75s3.09-3,4.77-3a6.89,6.89,0,0,1,4.62,1.94,6.09,6.09,0,0,0-.56,3.39c.34,3.77,3,7.69,7,10.5A37.86,37.86,0,0,0,51,55.53a20.49,20.49,0,0,1,7.73,4.84l.66.66a1.19,1.19,0,0,1,.22,1.39h0a1.18,1.18,0,0,1-1.64.51,69.35,69.35,0,0,0-15.44-6.3,27.29,27.29,0,0,1-3.61-1.34A20.68,20.68,0,0,1,35.31,53a13.29,13.29,0,0,1-4.72-14.08l0-.19A1.14,1.14,0,0,0,28.44,38l-.05.2a15.62,15.62,0,0,0,5.48,16.51c.23.17.46.33.68.52C28.44,54.9,22.83,56.34,19,59.33l0-.06-.24.21c-.08.07-.17.12-.25.18-.29.24-.56.49-.81.74a8.46,8.46,0,0,1-8.58,1.14A10.91,10.91,0,0,1,2.89,53.37Zm42.16-5a6,6,0,0,0,.71,2.29c-.85-.47-1.7-1-2.54-1.55-4.11-2.87-5.82-6.44-6-8.82a3.32,3.32,0,0,1,0-.53,2.83,2.83,0,0,1,.62-2,2.83,2.83,0,0,1,2-.61l.54,0c2.38.2,5.95,1.9,8.82,6,.57.84,1.08,1.69,1.55,2.54a5.8,5.8,0,0,0-2.29-.71,2.83,2.83,0,0,0-3.34,3.34Zm2.4-.94c0-.05.26-.16.74-.12A5.71,5.71,0,0,1,52,50a16.72,16.72,0,0,1,2,4,16.72,16.72,0,0,1-4-2,5.71,5.71,0,0,1-2.67-3.83,1.41,1.41,0,0,1,0-.2C47.32,47.64,47.41,47.47,47.45,47.45ZM33.2,66.81A9,9,0,0,1,39,69.09s0,0,0,0a11.11,11.11,0,0,0,6.45,2.31,49.46,49.46,0,0,1-7.4,1.93c-8.5,1.54-14.92-.76-18.12-3.44a7.42,7.42,0,0,1-2.34-3.1ZM17.65,64.52A7.48,7.48,0,0,1,20,61.42c3.2-2.67,9.62-5,18.12-3.44a53.75,53.75,0,0,1,7.4,1.93,11.11,11.11,0,0,0-6.45,2.31s0,0,0,0a9.14,9.14,0,0,1-5.84,2.27Zm22.88,2.83a2.81,2.81,0,0,1-1.06-1.56s0-.08,0-.12,0-.08,0-.13A2.72,2.72,0,0,1,40.53,64c1.49-1.25,4.52-2.33,8.59-1.6a31.23,31.23,0,0,1,8.94,3.29A30.56,30.56,0,0,1,49.12,69C45.05,69.68,42,68.61,40.53,67.35Zm23.76,52.34a11.84,11.84,0,0,1-8.51,8.37,12.4,12.4,0,0,1-12.09-3.24L32.14,113.27a6.3,6.3,0,0,1-1.94-4.45,7.58,7.58,0,0,0-7.68-7.68,6.29,6.29,0,0,1-4.46-1.94L6.51,87.64A12.44,12.44,0,0,1,3.27,75.55,11.85,11.85,0,0,1,11.64,67l.94-.23A4,4,0,0,1,15.43,68a3.7,3.7,0,0,1,.59.79,10.73,10.73,0,0,0,2.51,2.93c3.85,3.22,9.66,4.78,16,4.41l-.68.51a15.63,15.63,0,0,0-5.48,16.52l.05.19a1.14,1.14,0,0,0,2.19-.65l0-.18a13.28,13.28,0,0,1,4.72-14.08A20.57,20.57,0,0,1,38.92,76a25.93,25.93,0,0,1,3.63-1.34A69.35,69.35,0,0,0,58,68.39a1.19,1.19,0,0,1,1.64.51h0a1.19,1.19,0,0,1-.22,1.39l-.66.65A20.27,20.27,0,0,1,51,75.8a37.86,37.86,0,0,0-9.11,4.53c-4.05,2.81-6.67,6.74-7,10.49a6.14,6.14,0,0,0,.56,3.41,6.94,6.94,0,0,1-4.62,1.92c-1.68-.07-3.28-1.09-4.77-3S24.51,89,24.37,86.37c-.2-3.86-.44-8.21-5.2-12.09a10.21,10.21,0,0,0-9-1.9,7.43,7.43,0,0,0-5,5.42,8.26,8.26,0,0,0,2.65,8.51c2.14,1.9,4.77,2.52,6.88,1.61a5.59,5.59,0,0,0,3.68-5.53,5.35,5.35,0,0,0-3.4-4.83,4,4,0,0,0-3.86.54A3.61,3.61,0,0,0,9.91,81a1.1,1.1,0,0,0,1.21,1,1.17,1.17,0,0,0,1.07-1.2,1.25,1.25,0,0,1,.48-.89,2,2,0,0,1,1.73-.09,3.12,3.12,0,0,1,1.76,2.77,3.28,3.28,0,0,1-2.29,3.3c-1.27.54-3,.06-4.47-1.23a6.06,6.06,0,0,1-2-6.17,5.22,5.22,0,0,1,3.47-3.86,7.91,7.91,0,0,1,6.83,1.48c4,3.24,4.16,6.74,4.36,10.45.15,2.74.31,5.58,2.17,8s4.11,3.82,6.51,3.93a7.45,7.45,0,0,0,2.45-.34,7,7,0,0,0-.32,2.46c.09,2.39,1.41,4.59,3.92,6.5s5.27,2,8,2.17c3.7.21,7.2.4,10.44,4.37a8,8,0,0,1,1.49,6.83,5.24,5.24,0,0,1-3.87,3.47,6.1,6.1,0,0,1-6.18-2c-1.28-1.45-1.76-3.21-1.22-4.47a3.28,3.28,0,0,1,3.31-2.29,3.09,3.09,0,0,1,2.76,1.76,2,2,0,0,1-.09,1.73,1.26,1.26,0,0,1-.88.48,1.15,1.15,0,0,0-.22,2.28,3.58,3.58,0,0,0,2.85-1.27,4,4,0,0,0,.54-3.87,5.32,5.32,0,0,0-4.83-3.4,5.61,5.61,0,0,0-5.54,3.67c-.9,2.11-.28,4.75,1.62,6.89A8.37,8.37,0,0,0,57.2,124a7.14,7.14,0,0,0,1.75-2.9,10.21,10.21,0,0,0-1.9-9c-3.87-4.76-8.24-5-12.1-5.2-2.61-.15-4.86-.27-6.75-1.71s-3-3.08-3-4.77a7,7,0,0,1,1.94-4.62,6.2,6.2,0,0,0,3.4.56c3.76-.34,7.68-3,10.49-7a37.62,37.62,0,0,0,4.53-9.1,20.47,20.47,0,0,1,4.85-7.74l.65-.66a1.2,1.2,0,0,1,1.39-.22s0,0,0,0a1.17,1.17,0,0,1,.51,1.63,69.38,69.38,0,0,0-6.29,15.42A25.11,25.11,0,0,1,55.3,92.4,21,21,0,0,1,53,96a13.31,13.31,0,0,1-14.08,4.73l-.19,0a1.13,1.13,0,0,0-1.41.77A1.15,1.15,0,0,0,38,102.9l.2,0a15.62,15.62,0,0,0,16.51-5.48c.17-.22.35-.44.52-.68-.38,6.36,1.19,12.17,4.4,16a10.7,10.7,0,0,0,2.93,2.51,3.92,3.92,0,0,1,1.93,3.44C64.45,119.06,64.37,119.39,64.29,119.69ZM45.82,85.51a3.13,3.13,0,0,0,2.57.77,6.07,6.07,0,0,0,2.3-.71c-.48.86-1,1.7-1.56,2.54-2.87,4.12-6.44,5.82-8.82,6a3.26,3.26,0,0,1-2.53-.59,2.83,2.83,0,0,1-.62-2,3.32,3.32,0,0,1,0-.53c.2-2.37,1.91-5.94,6-8.81.84-.59,1.69-1.09,2.54-1.57a6.07,6.07,0,0,0-.71,2.3A3.18,3.18,0,0,0,45.82,85.51ZM48.19,84a1.08,1.08,0,0,1-.74-.11.82.82,0,0,1-.13-.55,1.41,1.41,0,0,1,0-.2A5.73,5.73,0,0,1,50,79.31a16.72,16.72,0,0,1,4-2,16.59,16.59,0,0,1-2,4A5.68,5.68,0,0,1,48.19,84Zm16.33,29.68a7.4,7.4,0,0,1-3.1-2.34c-2.08-2.48-3.94-6.93-3.94-12.79a31,31,0,0,1,.5-5.33,54.13,54.13,0,0,1,1.93-7.4,11.08,11.08,0,0,0,2.31,6.45s0,0,0,0a9.16,9.16,0,0,1,2.27,5.84Zm1.15-21.84s-.08,0-.13,0a2.78,2.78,0,0,1-1.55-1,9.47,9.47,0,0,1-1.85-6,14.82,14.82,0,0,1,.24-2.57,31.2,31.2,0,0,1,3.29-9,31.22,31.22,0,0,1,3.28,9c.73,4.06-.34,7.09-1.6,8.59a2.75,2.75,0,0,1-1.56,1S65.71,91.83,65.67,91.84Zm5.77-6a52.64,52.64,0,0,1,1.91,7.37c1.54,8.5-.76,14.93-3.44,18.12a7.34,7.34,0,0,1-3.1,2.34V98.13a9.12,9.12,0,0,1,2.28-5.84,0,0,0,0,0,0,0A11.24,11.24,0,0,0,71.44,85.85Zm53.38,1.79L113.27,99.19a6.3,6.3,0,0,1-4.45,2,7.56,7.56,0,0,0-7.67,7.67,6.3,6.3,0,0,1-2,4.45l-.16.17-11.4,11.39a12.4,12.4,0,0,1-12.09,3.24A11.84,11.84,0,0,1,67,119.69c-.08-.3-.16-.63-.23-.94A4.06,4.06,0,0,1,68,115.9a3.7,3.7,0,0,1,.79-.59,10.56,10.56,0,0,0,2.93-2.51c2.91-3.47,4.47-8.54,4.46-14.18,0-.61,0-1.22,0-1.84.18.23.34.46.51.68a15.63,15.63,0,0,0,16.52,5.48l.19,0a1.17,1.17,0,0,0,.82-1.1,1.26,1.26,0,0,0-.05-.33,1.13,1.13,0,0,0-1.42-.77l-.18,0A13.31,13.31,0,0,1,78.39,96,20.24,20.24,0,0,1,76,92.42a23.8,23.8,0,0,1-1.35-3.66,69.53,69.53,0,0,0-6.3-15.42,1.19,1.19,0,0,1,.51-1.63v0a1.2,1.2,0,0,1,1.39.22l.66.66a20.32,20.32,0,0,1,4.84,7.74,38.37,38.37,0,0,0,4.53,9.1c2.81,4,6.74,6.67,10.5,7a6.21,6.21,0,0,0,3.4-.56,7,7,0,0,1,1.92,4.62c-.07,1.69-1.09,3.29-3,4.77S89,106.82,86.37,107c-3.86.2-8.21.46-12.09,5.2a10.21,10.21,0,0,0-1.9,9,7.41,7.41,0,0,0,5.42,5,8.21,8.21,0,0,0,8.12-2.23,3.88,3.88,0,0,0,.39-.42c1.9-2.14,2.52-4.77,1.62-6.87a5.62,5.62,0,0,0-5.54-3.69,5.35,5.35,0,0,0-4.83,3.4,4,4,0,0,0,.54,3.87A3.54,3.54,0,0,0,81,121.43a1.11,1.11,0,0,0,1-1.22,1.16,1.16,0,0,0-1.2-1.06,1.3,1.3,0,0,1-.89-.49,2,2,0,0,1-.09-1.73,3.11,3.11,0,0,1,2.77-1.76,3.28,3.28,0,0,1,3.3,2.29c.54,1.27.06,3-1.23,4.47a6.06,6.06,0,0,1-6.17,2,5.22,5.22,0,0,1-3.86-3.47,7.92,7.92,0,0,1,1.48-6.83c3.24-4,6.74-4.16,10.45-4.35,2.74-.15,5.58-.31,8-2.18s3.84-4.1,3.93-6.51a7.35,7.35,0,0,0-.34-2.44,7.29,7.29,0,0,0,2.46.32c2.39-.09,4.59-1.42,6.5-3.93s2-5.27,2.17-8c.21-3.71.4-7.21,4.37-10.45a7.94,7.94,0,0,1,6.83-1.48,5.22,5.22,0,0,1,3.47,3.86,6.1,6.1,0,0,1-2,6.18c-1.45,1.28-3.21,1.76-4.47,1.22a3.28,3.28,0,0,1-2.29-3.3,3.1,3.1,0,0,1,1.76-2.77,2,2,0,0,1,1.73.09,1.27,1.27,0,0,1,.48.88,1.15,1.15,0,1,0,2.28.22,3.59,3.59,0,0,0-1.27-2.85,4,4,0,0,0-3.87-.54,5.35,5.35,0,0,0-3.4,4.83,5.62,5.62,0,0,0,3.67,5.55c2.11.89,4.75.27,6.89-1.63a3.88,3.88,0,0,0,.42-.39,8.21,8.21,0,0,0,2.23-8.12,7.43,7.43,0,0,0-5-5.42,10.21,10.21,0,0,0-9,1.9c-4.74,3.89-5,8.25-5.2,12.1-.15,2.61-.27,4.86-1.71,6.75s-3.08,3-4.77,3a7,7,0,0,1-4.63-1.94,5.71,5.71,0,0,0,.61-2.66,6,6,0,0,0,0-.73c-.34-3.76-3-7.69-7-10.5a38,38,0,0,0-9.1-4.53A20.23,20.23,0,0,1,72.57,71l-.66-.65a1.2,1.2,0,0,1-.22-1.39h0a1.19,1.19,0,0,1,1.63-.51,69.44,69.44,0,0,0,15.43,6.3A24,24,0,0,1,92.42,76,20.24,20.24,0,0,1,96,78.39a13.31,13.31,0,0,1,4.73,14.08l0,.18a1.13,1.13,0,0,0,.77,1.42,1.26,1.26,0,0,0,.33.05,1.17,1.17,0,0,0,1.1-.82l0-.19a15.63,15.63,0,0,0-5.48-16.52l-.68-.51c.62,0,1.23.06,1.84,0,5.64,0,10.71-1.55,14.18-4.46a10.56,10.56,0,0,0,2.51-2.93,3.7,3.7,0,0,1,.59-.79,4.06,4.06,0,0,1,2.85-1.14l.94.23a11.84,11.84,0,0,1,8.37,8.51A12.4,12.4,0,0,1,124.82,87.64Zm-38.54-4.7a6.07,6.07,0,0,0-.71-2.3,28.57,28.57,0,0,1,2.54,1.57c4.13,2.87,5.82,6.44,6,8.81a3.23,3.23,0,0,1-.59,2.53,2.82,2.82,0,0,1-2,.61l-.54,0c-2.37-.21-5.94-1.91-8.81-6a28.44,28.44,0,0,1-1.56-2.54,6,6,0,0,0,2.29.71,3.12,3.12,0,0,0,2.57-.77,3,3,0,0,0,.79-2.17A2.75,2.75,0,0,0,86.28,82.94Zm-2.39,1a1.14,1.14,0,0,1-.75.11,5.7,5.7,0,0,1-3.83-2.66,16.59,16.59,0,0,1-2-4,16.59,16.59,0,0,1,4,2A5.66,5.66,0,0,1,84,83.14,1.07,1.07,0,0,1,83.89,83.89Z"/><path class="cls-1" d="M19.22,39.46a2,2,0,1,0-2.89,0A2.05,2.05,0,0,0,19.22,39.46Z"/><circle class="cls-1" cx="38.01" cy="17.77" r="2.05"/><circle class="cls-1" cx="93.32" cy="17.77" r="2.05"/><path class="cls-1" d="M115,39.46a2.05,2.05,0,1,0-2.9,0A2.05,2.05,0,0,0,115,39.46Z"/><path class="cls-1" d="M112.11,91.87a2.05,2.05,0,1,0,2.9,0A2.05,2.05,0,0,0,112.11,91.87Z"/><path class="cls-1" d="M91.87,112.11a2.05,2.05,0,1,0,2.9,0A2.05,2.05,0,0,0,91.87,112.11Z"/><path class="cls-1" d="M36.56,112.11a2.05,2.05,0,1,0,2.9,0A2.05,2.05,0,0,0,36.56,112.11Z"/><path class="cls-1" d="M16.33,91.87a2,2,0,1,0,2.89,0A2,2,0,0,0,16.33,91.87Z"/><path class="cls-1" d="M130.84,60.72a10.26,10.26,0,0,1-4.15,4.8.16.16,0,0,0,0,.29,10.3,10.3,0,0,1,4.15,4.8.17.17,0,0,0,.32-.06c.11-1.63.17-3.26.17-4.88s-.06-3.26-.17-4.88A.17.17,0,0,0,130.84,60.72Z"/><path class="cls-1" d="M70.61,130.84a10.3,10.3,0,0,1-4.8-4.15.16.16,0,0,0-.29,0,10.26,10.26,0,0,1-4.8,4.15.17.17,0,0,0,.07.32c1.62.11,3.26.17,4.88.17s3.25-.06,4.88-.17A.17.17,0,0,0,70.61,130.84Z"/><path class="cls-1" d="M.5,70.61a10.27,10.27,0,0,1,4.14-4.8.16.16,0,0,0,0-.29A10.23,10.23,0,0,1,.5,60.72a.17.17,0,0,0-.32.07C.06,62.41,0,64.05,0,65.67s.06,3.25.18,4.88A.17.17,0,0,0,.5,70.61Z"/><path class="cls-1" d="M60.72.5a10.23,10.23,0,0,1,4.8,4.14.16.16,0,0,0,.29,0A10.27,10.27,0,0,1,70.61.5a.17.17,0,0,0-.06-.32C68.92.06,67.29,0,65.67,0s-3.26.06-4.88.18A.17.17,0,0,0,60.72.5Z"/><circle class="cls-1" cx="22.79" cy="22.77" r="2.83"/><circle class="cls-1" cx="108.54" cy="22.77" r="2.83"/><circle class="cls-1" cx="22.79" cy="108.56" r="2.83"/><circle class="cls-1" cx="108.54" cy="108.56" r="2.83"/></g></g></svg>