<svg xmlns="http://www.w3.org/2000/svg" viewBox="0 0 274.49 64.28"><defs><style>.cls-1{fill:#bacd74;}.cls-2{font-size:22.6px;fill:#0b260c;font-family:Poppins-Medium, Poppins Medium;font-weight:500;}.cls-2,.cls-4{letter-spacing:0.08em;}.cls-3{letter-spacing:0.09em;}.cls-5{letter-spacing:0.08em;}.cls-6{letter-spacing:0.09em;}.cls-7{letter-spacing:0.08em;}</style></defs><g id="Layer_2" data-name="Layer 2"><g id="Layer_1-2" data-name="Layer 1"><path class="cls-1" d="M60,32.14a6.94,6.94,0,0,0,3.77-4.55,7.19,7.19,0,0,0-1.87-7l-6.13-6.12a2.72,2.72,0,0,0-1.94-.81h-.45a2.75,2.75,0,0,1-2.75-2.75V10.6a3,3,0,0,0-.9-2.17l-6-6a7.21,7.21,0,0,0-7-1.87,6.94,6.94,0,0,0-4.55,3.77A6.94,6.94,0,0,0,27.59.52a7.19,7.19,0,0,0-7,1.87l-6,6a3,3,0,0,0-.9,2.17v.32a2.74,2.74,0,0,1-2.75,2.74h-.45a2.76,2.76,0,0,0-1.94.81L2.39,20.59a7.19,7.19,0,0,0-1.87,7,6.94,6.94,0,0,0,3.77,4.55A6.94,6.94,0,0,0,.52,36.69a7.21,7.21,0,0,0,1.87,7l6,6a3,3,0,0,0,2.17.9h.31a2.75,2.75,0,0,1,2.75,2.75v.45a2.72,2.72,0,0,0,.81,1.94l6.12,6.13a7.19,7.19,0,0,0,7,1.87A6.94,6.94,0,0,0,32.14,60a6.94,6.94,0,0,0,4.55,3.77,7.21,7.21,0,0,0,7-1.87l6.13-6.14a2.7,2.7,0,0,0,.81-1.94v-.45a2.73,2.73,0,0,1,2.74-2.74h.32a3,3,0,0,0,2.17-.91l6-6a7.21,7.21,0,0,0,1.87-7A6.94,6.94,0,0,0,60,32.14ZM32.81,5.7A5.81,5.81,0,0,1,37,1.6,6.09,6.09,0,0,1,42.9,3.19l5.66,5.65A3.07,3.07,0,0,1,49.5,11a3.71,3.71,0,0,0,3.76,3.76,3.08,3.08,0,0,1,2.18,1l5.66,5.66a6.06,6.06,0,0,1,1.58,5.91,5.81,5.81,0,0,1-4.1,4.17l-.46.11a1.91,1.91,0,0,1-1.68-.95,5.37,5.37,0,0,0-1.23-1.43,11.23,11.23,0,0,0-7.84-2.15l.33-.26a7.64,7.64,0,0,0,2.69-8.08l0-.1a.56.56,0,0,0-.7-.37.55.55,0,0,0-.37.69l0,.09A6.53,6.53,0,0,1,47,25.92a11,11,0,0,1-1.78,1.15,12.22,12.22,0,0,1-1.78.66,33.6,33.6,0,0,0-7.54,3.08.59.59,0,0,1-.8-.25h0a.58.58,0,0,1,.11-.68l.32-.32a9.88,9.88,0,0,1,3.79-2.37A18.39,18.39,0,0,0,43.76,25a7.47,7.47,0,0,0,3.43-5.14,2.11,2.11,0,0,0,0-.35,2.66,2.66,0,0,0-.3-1.3,3.39,3.39,0,0,1,2.27-1,3.2,3.2,0,0,1,2.34,1.48A5.68,5.68,0,0,1,52.35,22c.1,1.88.22,4,2.55,5.92a5,5,0,0,0,4.38.92A3.48,3.48,0,0,0,60.7,28a4.09,4.09,0,0,0-.28-6,3.22,3.22,0,0,0-3.37-.79A2.74,2.74,0,0,0,55.25,24a2.61,2.61,0,0,0,1.66,2.36,2,2,0,0,0,1.9-.26,1.77,1.77,0,0,0,.62-1.4.54.54,0,0,0-.59-.49.59.59,0,0,0-.53.59.6.6,0,0,1-.23.44,1,1,0,0,1-.85,0,1.54,1.54,0,0,1-.86-1.35,1.61,1.61,0,0,1,1.12-1.62,2.18,2.18,0,0,1,2.19.61,3,3,0,0,1,1,3A2.57,2.57,0,0,1,59,27.79a3.91,3.91,0,0,1-3.35-.73c-1.94-1.59-2-3.3-2.13-5.11A6.64,6.64,0,0,0,52.41,18a4.29,4.29,0,0,0-3.19-1.92,3.59,3.59,0,0,0-1.2.16,3.36,3.36,0,0,0,.16-1.2,4.21,4.21,0,0,0-1.92-3.18,6.55,6.55,0,0,0-3.92-1.06c-1.82-.1-3.53-.2-5.12-2.14a3.89,3.89,0,0,1-.72-3.34,2.55,2.55,0,0,1,1.89-1.7,3,3,0,0,1,3,1A2.2,2.2,0,0,1,42,6.79a1.61,1.61,0,0,1-1.62,1.12A1.51,1.51,0,0,1,39,7.05a1,1,0,0,1,0-.85A.62.62,0,0,1,39.51,6a.56.56,0,1,0,.11-1.12,1.75,1.75,0,0,0-1.39.63A1.93,1.93,0,0,0,38,7.37,2.63,2.63,0,0,0,40.33,9,2.73,2.73,0,0,0,43,7.23a3.24,3.24,0,0,0-.79-3.37,4.09,4.09,0,0,0-4.17-1.3A3.65,3.65,0,0,0,35.43,5a5,5,0,0,0,.93,4.38c1.89,2.33,4,2.45,5.92,2.55a5.64,5.64,0,0,1,3.3.83,3.26,3.26,0,0,1,1.49,2.34,3.45,3.45,0,0,1-1,2.26,3,3,0,0,0-1.66-.27,7.49,7.49,0,0,0-5.14,3.43A18.39,18.39,0,0,0,37.1,25a9.81,9.81,0,0,1-2.37,3.79l-.32.32a.58.58,0,0,1-.68.11h0a.58.58,0,0,1-.26-.8,33.45,33.45,0,0,0,3.09-7.55,14,14,0,0,1,.65-1.78,10.38,10.38,0,0,1,1.16-1.77A6.51,6.51,0,0,1,45.26,15l.09,0a.55.55,0,0,0,.69-.37.56.56,0,0,0-.37-.7l-.1,0a7.62,7.62,0,0,0-8.08,2.68l-.25.33a11.29,11.29,0,0,0-2.16-7.84,5.37,5.37,0,0,0-1.43-1.23,1.52,1.52,0,0,1-.39-.29,2,2,0,0,1-.56-1.39C32.73,6,32.77,5.84,32.81,5.7ZM45,32.2a1.3,1.3,0,0,1-.51.76,5.19,5.19,0,0,1-4.21.79,15.22,15.22,0,0,1-4.38-1.61,15.22,15.22,0,0,1,4.38-1.61,8.16,8.16,0,0,1,1.26-.11,4.65,4.65,0,0,1,3,.9,1.38,1.38,0,0,1,.51.76s0,0,0,.06S45,32.18,45,32.2Zm.2,1.63s0,0,0,0A4.51,4.51,0,0,1,48,32.7h7.61a3.66,3.66,0,0,1-1.14,1.52c-1.57,1.31-4.71,2.43-8.87,1.68A26.47,26.47,0,0,1,42,35,5.51,5.51,0,0,0,45.16,33.83ZM48,31.58a4.46,4.46,0,0,1-2.85-1.11h0A5.4,5.4,0,0,0,42,29.32a25.23,25.23,0,0,1,3.62-.94,15.32,15.32,0,0,1,2.61-.25,9.89,9.89,0,0,1,6.26,1.93,3.72,3.72,0,0,1,1.14,1.52Zm-6.18-9.15a1.54,1.54,0,0,0-1.26-.38,3,3,0,0,0-1.12.35c.23-.42.49-.83.77-1.24a6.35,6.35,0,0,1,4.31-2.95,1.59,1.59,0,0,1,1.24.28,1.6,1.6,0,0,1,.29,1.24,6.41,6.41,0,0,1-3,4.32,13.29,13.29,0,0,1-1.24.76,2.86,2.86,0,0,0,.35-1.12,1.41,1.41,0,0,0,0-.2A1.43,1.43,0,0,0,41.85,22.43Zm-1.15.74a.49.49,0,0,1,.36,0,.5.5,0,0,1,0,.37,2.76,2.76,0,0,1-1.3,1.87,8.31,8.31,0,0,1-2,1,7.76,7.76,0,0,1,1-2A2.79,2.79,0,0,1,40.7,23.17Zm-6.56,9a2,2,0,1,1-2-2A2,2,0,0,1,34.14,32.14ZM32.7,8.64a3.61,3.61,0,0,1,1.52,1.15c1.31,1.56,2.43,4.7,1.68,8.86A25.37,25.37,0,0,1,35,22.28a5.47,5.47,0,0,0-1.13-3.16s0,0,0,0a4.44,4.44,0,0,1-1.11-2.85Zm-.56,10.69s0,0,.06,0a1.35,1.35,0,0,1,.76.52,5.15,5.15,0,0,1,.79,4.2,15.22,15.22,0,0,1-1.61,4.38A15.22,15.22,0,0,1,30.53,24a5.19,5.19,0,0,1,.79-4.2,1.27,1.27,0,0,1,.76-.52S32.12,19.34,32.14,19.33Zm-2.82,3a25.72,25.72,0,0,1-.94-3.63c-.75-4.16.37-7.3,1.68-8.86a3.67,3.67,0,0,1,1.52-1.15v7.61a4.44,4.44,0,0,1-1.11,2.85s0,0,0,0A5.41,5.41,0,0,0,29.32,22.28ZM1.42,26.12a6,6,0,0,1,1.77-4.73l5.66-5.66a3,3,0,0,1,2.17-1,3.64,3.64,0,0,0,2.67-1.08A3.68,3.68,0,0,0,14.78,11a3.06,3.06,0,0,1,1-2.18l5.66-5.65A6.06,6.06,0,0,1,27.3,1.6a5.81,5.81,0,0,1,4.17,4.1c0,.14.08.31.11.46a1.91,1.91,0,0,1-.95,1.68A5.37,5.37,0,0,0,29.2,9.07a11.24,11.24,0,0,0-2.15,7.84l-.26-.33a7.62,7.62,0,0,0-8.08-2.68l-.1,0a.56.56,0,0,0-.37.7.55.55,0,0,0,.69.37L19,15a6.53,6.53,0,0,1,6.9,2.31,11,11,0,0,1,1.15,1.78,12.27,12.27,0,0,1,.65,1.77,33.45,33.45,0,0,0,3.09,7.55.58.58,0,0,1-.25.8,0,0,0,0,0,0,0,.58.58,0,0,1-.68-.11l-.32-.32A9.81,9.81,0,0,1,27.18,25,18.39,18.39,0,0,0,25,20.52a7.45,7.45,0,0,0-5.14-3.43,3,3,0,0,0-1.66.27,3.4,3.4,0,0,1-.94-2.26,3.25,3.25,0,0,1,1.48-2.34A5.68,5.68,0,0,1,22,11.93c1.7-.09,3.63-.2,5.38-1.95q.27-.27.54-.6A5,5,0,0,0,28.85,5,3.63,3.63,0,0,0,26.2,2.56,4,4,0,0,0,22,3.86a3.22,3.22,0,0,0-.79,3.37A2.73,2.73,0,0,0,24,9a2.61,2.61,0,0,0,2.36-1.66,2,2,0,0,0-.26-1.89,1.75,1.75,0,0,0-1.4-.63.55.55,0,0,0-.49.59.59.59,0,0,0,.59.53.6.6,0,0,1,.44.23,1,1,0,0,1,.05.85,1.55,1.55,0,0,1-1.36.86,1.61,1.61,0,0,1-1.62-1.12,2.18,2.18,0,0,1,.61-2.19,3,3,0,0,1,3-1,2.58,2.58,0,0,1,1.9,1.7,3.89,3.89,0,0,1-.73,3.34c-1.58,1.94-3.3,2-5.11,2.13A6.64,6.64,0,0,0,18,11.87a4.29,4.29,0,0,0-1.92,3.19,3.59,3.59,0,0,0,.16,1.2,3.59,3.59,0,0,0-1.2-.16A4.27,4.27,0,0,0,11.88,18,6.57,6.57,0,0,0,10.82,22c-.1,1.81-.21,3.52-2.14,5.11a3.92,3.92,0,0,1-3.34.73,2.58,2.58,0,0,1-1.7-1.9,3,3,0,0,1,1-3,2.2,2.2,0,0,1,2.19-.6,1.61,1.61,0,0,1,1.12,1.62,1.51,1.51,0,0,1-.86,1.35,1,1,0,0,1-.85,0A.62.62,0,0,1,6,24.77a.56.56,0,0,0-.51-.61.55.55,0,0,0-.61.5,1.75,1.75,0,0,0,.63,1.39,1.93,1.93,0,0,0,1.89.27A2.61,2.61,0,0,0,9,24a2.74,2.74,0,0,0-1.8-2.72A3.26,3.26,0,0,0,3.86,22a4.09,4.09,0,0,0-1.3,4.17A3.65,3.65,0,0,0,5,28.85a5,5,0,0,0,4.38-.92q.33-.27.6-.54c1.75-1.75,1.86-3.68,1.95-5.39a5.66,5.66,0,0,1,.83-3.3,3.21,3.21,0,0,1,2.34-1.48,3.36,3.36,0,0,1,2.26.94,3,3,0,0,0-.27,1.66A7.45,7.45,0,0,0,20.52,25,18.39,18.39,0,0,0,25,27.18a9.81,9.81,0,0,1,3.79,2.37l.32.32a.58.58,0,0,1,.11.68h0a.58.58,0,0,1-.8.25,33.45,33.45,0,0,0-7.55-3.09,12.27,12.27,0,0,1-1.77-.65,11,11,0,0,1-1.78-1.15A6.53,6.53,0,0,1,15,19l0-.09a.55.55,0,0,0-.37-.69.56.56,0,0,0-.7.37l0,.1a7.62,7.62,0,0,0,2.68,8.08l.33.26a11.38,11.38,0,0,0-7.62,2l0,0-.12.1-.12.09-.4.37a4.15,4.15,0,0,1-4.2.55A5.33,5.33,0,0,1,1.42,26.12Zm20.63-2.43a3,3,0,0,0,.35,1.12c-.42-.23-.83-.48-1.24-.76a6.39,6.39,0,0,1-2.95-4.32,1.14,1.14,0,0,1,0-.26,1.42,1.42,0,0,1,.3-1,1.4,1.4,0,0,1,1-.3l.26,0a6.39,6.39,0,0,1,4.32,2.95c.28.41.53.82.76,1.24a2.86,2.86,0,0,0-1.12-.35,1.39,1.39,0,0,0-1.64,1.64Zm1.17-.47a.5.5,0,0,1,.37,0,2.79,2.79,0,0,1,1.87,1.3,8.18,8.18,0,0,1,1,2,8.18,8.18,0,0,1-2-1,2.79,2.79,0,0,1-1.3-1.87.38.38,0,0,1,0-.1A.49.49,0,0,1,23.22,23.22Zm-7,9.48a4.44,4.44,0,0,1,2.85,1.11l0,0A5.47,5.47,0,0,0,22.28,35a25.37,25.37,0,0,1-3.63.94c-4.16.75-7.3-.37-8.86-1.68A3.61,3.61,0,0,1,8.64,32.7ZM8.64,31.58a3.67,3.67,0,0,1,1.15-1.52c1.56-1.31,4.7-2.43,8.86-1.68a25.72,25.72,0,0,1,3.63.94,5.41,5.41,0,0,0-3.16,1.14h0a4.49,4.49,0,0,1-2.86,1.11ZM19.84,33a1.35,1.35,0,0,1-.52-.76s0,0,0-.06,0,0,0-.06a1.27,1.27,0,0,1,.52-.76,5.19,5.19,0,0,1,4.2-.79,15.22,15.22,0,0,1,4.38,1.61A15.22,15.22,0,0,1,24,33.75,5.15,5.15,0,0,1,19.84,33ZM31.47,58.58a5.81,5.81,0,0,1-4.17,4.1,6.06,6.06,0,0,1-5.91-1.58l-5.66-5.66a3.08,3.08,0,0,1-1-2.18A3.71,3.71,0,0,0,11,49.5a3.07,3.07,0,0,1-2.18-.94L3.19,42.9A6.09,6.09,0,0,1,1.6,37a5.81,5.81,0,0,1,4.1-4.17l.46-.11a2,2,0,0,1,1.39.56,1.52,1.52,0,0,1,.29.39,5.37,5.37,0,0,0,1.23,1.43,11.29,11.29,0,0,0,7.84,2.16l-.33.25a7.62,7.62,0,0,0-2.68,8.08l0,.1a.56.56,0,0,0,.7.37.55.55,0,0,0,.37-.69l0-.09a6.51,6.51,0,0,1,2.31-6.89,10.38,10.38,0,0,1,1.77-1.16,14,14,0,0,1,1.78-.65,33.45,33.45,0,0,0,7.55-3.09.58.58,0,0,1,.8.25h0a.58.58,0,0,1-.11.68l-.32.32A9.81,9.81,0,0,1,25,37.1a18.39,18.39,0,0,0-4.45,2.22,7.49,7.49,0,0,0-3.43,5.13,3,3,0,0,0,.27,1.67,3.4,3.4,0,0,1-2.26.94,3.21,3.21,0,0,1-2.34-1.48,5.66,5.66,0,0,1-.83-3.31c-.1-1.88-.22-4-2.55-5.91A5,5,0,0,0,5,35.43a3.63,3.63,0,0,0-2.44,2.65,4.06,4.06,0,0,0,1.3,4.17A3.24,3.24,0,0,0,7.23,43,2.74,2.74,0,0,0,9,40.33,2.63,2.63,0,0,0,7.37,38a1.93,1.93,0,0,0-1.89.27,1.75,1.75,0,0,0-.63,1.39.55.55,0,0,0,.59.49A.59.59,0,0,0,6,39.52a.6.6,0,0,1,.23-.44,1,1,0,0,1,.85,0,1.52,1.52,0,0,1,.86,1.35A1.61,1.61,0,0,1,6.79,42a2.2,2.2,0,0,1-2.19-.6,3,3,0,0,1-1-3,2.55,2.55,0,0,1,1.7-1.89,3.89,3.89,0,0,1,3.34.72c1.94,1.59,2,3.3,2.13,5.12a6.62,6.62,0,0,0,1.06,3.92,4.26,4.26,0,0,0,3.19,1.92,3.59,3.59,0,0,0,1.2-.16,3.59,3.59,0,0,0-.16,1.2A4.27,4.27,0,0,0,18,52.4,6.65,6.65,0,0,0,22,53.47c1.81.1,3.52.19,5.11,2.13A3.94,3.94,0,0,1,27.79,59a2.57,2.57,0,0,1-1.9,1.69,3,3,0,0,1-3-1,2.2,2.2,0,0,1-.6-2.19,1.61,1.61,0,0,1,1.62-1.12,1.51,1.51,0,0,1,1.35.86,1,1,0,0,1,0,.85.62.62,0,0,1-.43.23.57.57,0,0,0-.61.51.55.55,0,0,0,.5.61,1.77,1.77,0,0,0,1.4-.62,2,2,0,0,0,.26-1.9A2.6,2.6,0,0,0,24,55.25a2.74,2.74,0,0,0-2.72,1.8,3.25,3.25,0,0,0,.8,3.37,4.05,4.05,0,0,0,4.16,1.3,4.12,4.12,0,0,0,1.8-1,3.48,3.48,0,0,0,.85-1.42,5,5,0,0,0-.92-4.38c-1.9-2.33-4-2.45-5.93-2.55a5.66,5.66,0,0,1-3.3-.83,3.2,3.2,0,0,1-1.48-2.34,3.4,3.4,0,0,1,.94-2.26,3,3,0,0,0,1.67.27A7.45,7.45,0,0,0,25,43.76a18.39,18.39,0,0,0,2.22-4.45,10,10,0,0,1,2.37-3.79l.32-.32a.58.58,0,0,1,.68-.11h0a.59.59,0,0,1,.25.8,33.6,33.6,0,0,0-3.08,7.54,12.22,12.22,0,0,1-.66,1.78A11,11,0,0,1,25.92,47,6.53,6.53,0,0,1,19,49.31l-.09,0a.55.55,0,0,0-.69.37.56.56,0,0,0,.37.7l.1,0a7.64,7.64,0,0,0,8.08-2.69l.26-.33a11.23,11.23,0,0,0,2.15,7.84,5.37,5.37,0,0,0,1.43,1.23,1.91,1.91,0,0,1,.95,1.68C31.55,58.27,31.51,58.44,31.47,58.58Zm-9-16.73a1.51,1.51,0,0,0,1.26.38,2.86,2.86,0,0,0,1.12-.35,13.29,13.29,0,0,1-.76,1.24,6.44,6.44,0,0,1-4.32,3,1.6,1.6,0,0,1-1.24-.29,1.42,1.42,0,0,1-.3-1,1.18,1.18,0,0,1,0-.26,6.35,6.35,0,0,1,2.95-4.31,12.63,12.63,0,0,1,1.24-.77,3,3,0,0,0-.35,1.12A1.57,1.57,0,0,0,22.43,41.85Zm1.16-.74a.5.5,0,0,1-.37,0,.49.49,0,0,1-.06-.27.28.28,0,0,1,0-.09,2.79,2.79,0,0,1,1.3-1.88,7.76,7.76,0,0,1,2-1,8.31,8.31,0,0,1-1,2A2.76,2.76,0,0,1,23.59,41.11Zm8,14.53a3.72,3.72,0,0,1-1.52-1.14,9.89,9.89,0,0,1-1.93-6.26,15.32,15.32,0,0,1,.25-2.61A25.23,25.23,0,0,1,29.32,42a5.4,5.4,0,0,0,1.14,3.15,0,0,0,0,0,0,0A4.51,4.51,0,0,1,31.58,48ZM32.14,45s0,0-.06,0a1.38,1.38,0,0,1-.76-.51,4.65,4.65,0,0,1-.9-3,8.16,8.16,0,0,1,.11-1.26,15.22,15.22,0,0,1,1.61-4.38,15.22,15.22,0,0,1,1.61,4.38A5.19,5.19,0,0,1,33,44.45a1.3,1.3,0,0,1-.76.51S32.16,44.94,32.14,45ZM35,42a26.47,26.47,0,0,1,.93,3.61c.75,4.16-.37,7.3-1.68,8.87a3.66,3.66,0,0,1-1.52,1.14V48a4.51,4.51,0,0,1,1.11-2.86s0,0,0,0A5.51,5.51,0,0,0,35,42Zm26.13.88-5.66,5.65a3.06,3.06,0,0,1-2.18,1,3.71,3.71,0,0,0-3.75,3.76,3.12,3.12,0,0,1-.95,2.18l-.08.08L42.9,61.1A6.08,6.08,0,0,1,37,62.68a5.81,5.81,0,0,1-4.17-4.1c0-.14-.08-.31-.11-.46a2,2,0,0,1,.56-1.39,1.8,1.8,0,0,1,.39-.29,5.37,5.37,0,0,0,1.43-1.23,10.77,10.77,0,0,0,2.18-6.94c0-.3,0-.6,0-.9l.25.33a7.64,7.64,0,0,0,8.08,2.69l.1,0a.56.56,0,0,0,.4-.53.51.51,0,0,0,0-.17.55.55,0,0,0-.69-.37l-.09,0A6.51,6.51,0,0,1,38.37,47a9.68,9.68,0,0,1-1.15-1.76,12.26,12.26,0,0,1-.66-1.8,33.54,33.54,0,0,0-3.09-7.54.58.58,0,0,1,.26-.8h0a.58.58,0,0,1,.68.11l.32.32a9.88,9.88,0,0,1,2.37,3.79,18.39,18.39,0,0,0,2.22,4.45,7.49,7.49,0,0,0,5.14,3.43,3,3,0,0,0,1.66-.27,3.4,3.4,0,0,1,.94,2.26,3.2,3.2,0,0,1-1.48,2.34,5.66,5.66,0,0,1-3.31.83c-1.88.1-4,.22-5.91,2.55a5,5,0,0,0-.93,4.38,3.63,3.63,0,0,0,2.65,2.44,4.06,4.06,0,0,0,4-1.09l.19-.21A3.24,3.24,0,0,0,43,57.05a2.75,2.75,0,0,0-2.71-1.8A2.63,2.63,0,0,0,38,56.91a2,2,0,0,0,.27,1.9,1.74,1.74,0,0,0,1.39.62.54.54,0,0,0,.49-.59.57.57,0,0,0-.59-.52.67.67,0,0,1-.44-.24,1,1,0,0,1,0-.85,1.51,1.51,0,0,1,1.35-.86A1.61,1.61,0,0,1,42,57.49a2.2,2.2,0,0,1-.6,2.19,3,3,0,0,1-3,1A2.53,2.53,0,0,1,36.5,59a3.9,3.9,0,0,1,.72-3.35c1.59-1.94,3.3-2,5.12-2.13a6.62,6.62,0,0,0,3.92-1.06,4.23,4.23,0,0,0,1.92-3.19A3.59,3.59,0,0,0,48,48a3.36,3.36,0,0,0,1.2.16,4.21,4.21,0,0,0,3.18-1.92,6.63,6.63,0,0,0,1.07-3.92c.1-1.82.19-3.53,2.13-5.12A3.9,3.9,0,0,1,59,36.5a2.53,2.53,0,0,1,1.69,1.89,3,3,0,0,1-1,3,2.2,2.2,0,0,1-2.19.6,1.61,1.61,0,0,1-1.12-1.62A1.51,1.51,0,0,1,57.23,39a1,1,0,0,1,.85,0,.62.62,0,0,1,.23.43.58.58,0,0,0,.51.62.56.56,0,0,0,.61-.51,1.74,1.74,0,0,0-.62-1.39,2,2,0,0,0-1.9-.27,2.63,2.63,0,0,0-1.66,2.37A2.74,2.74,0,0,0,57.05,43a3.24,3.24,0,0,0,3.37-.79l.21-.19a4.07,4.07,0,0,0,1.09-4,3.63,3.63,0,0,0-2.44-2.65,5,5,0,0,0-4.38.93c-2.33,1.9-2.45,4-2.55,5.92a5.64,5.64,0,0,1-.83,3.3,3.24,3.24,0,0,1-2.34,1.49,3.44,3.44,0,0,1-2.27-1,2.64,2.64,0,0,0,.3-1.29,2.11,2.11,0,0,0,0-.36,7.49,7.49,0,0,0-3.43-5.14,18.39,18.39,0,0,0-4.45-2.22,9.88,9.88,0,0,1-3.79-2.37l-.32-.32a.58.58,0,0,1-.11-.68h0a.59.59,0,0,1,.8-.25,33.45,33.45,0,0,0,7.55,3.09,12.48,12.48,0,0,1,1.79.66A9.68,9.68,0,0,1,47,38.37a6.51,6.51,0,0,1,2.31,6.89l0,.09a.55.55,0,0,0,.37.69.51.51,0,0,0,.17,0,.56.56,0,0,0,.53-.4l0-.1a7.64,7.64,0,0,0-2.69-8.08l-.33-.25c.3,0,.6,0,.9,0a10.77,10.77,0,0,0,6.94-2.18,5.37,5.37,0,0,0,1.23-1.43,1.8,1.8,0,0,1,.29-.39,2,2,0,0,1,1.39-.56l.46.11A5.81,5.81,0,0,1,62.68,37,6.08,6.08,0,0,1,61.1,42.9ZM42.23,40.59a2.86,2.86,0,0,0-.35-1.12,11.55,11.55,0,0,1,1.24.77,6.37,6.37,0,0,1,3,4.31,1.59,1.59,0,0,1-.29,1.24,1.39,1.39,0,0,1-1,.3h-.27a6.41,6.41,0,0,1-4.31-3,13.4,13.4,0,0,1-.77-1.24,2.86,2.86,0,0,0,1.12.35,1.51,1.51,0,0,0,1.26-.38,1.43,1.43,0,0,0,.39-1.06A1.41,1.41,0,0,0,42.23,40.59Zm-1.17.47a.49.49,0,0,1-.36,0,2.75,2.75,0,0,1-1.88-1.3,7.88,7.88,0,0,1-1-2,7.88,7.88,0,0,1,2,1,2.73,2.73,0,0,1,1.3,1.88A.49.49,0,0,1,41.06,41.06Z"/><path class="cls-1" d="M9.41,19.31a1,1,0,1,0-1.42,0A1,1,0,0,0,9.41,19.31Z"/><circle class="cls-1" cx="18.6" cy="8.7" r="1"/><circle class="cls-1" cx="45.68" cy="8.7" r="1"/><path class="cls-1" d="M56.29,19.31a1,1,0,1,0-1.42,0A1,1,0,0,0,56.29,19.31Z"/><path class="cls-1" d="M54.87,45a1,1,0,1,0,1.42,0A1,1,0,0,0,54.87,45Z"/><path class="cls-1" d="M45,54.87a1,1,0,1,0,1.42,0A1,1,0,0,0,45,54.87Z"/><path class="cls-1" d="M17.89,54.87a1,1,0,1,0,1.42,0A1,1,0,0,0,17.89,54.87Z"/><path class="cls-1" d="M8,45a1,1,0,1,0,1.42,0A1,1,0,0,0,8,45Z"/><path class="cls-1" d="M64,29.72a5.06,5.06,0,0,1-2,2.35.08.08,0,0,0,0,.14,5.1,5.1,0,0,1,2,2.35c0,.08.15,0,.16,0,0-.8.08-1.6.08-2.39s0-1.59-.08-2.39C64.19,29.67,64.07,29.64,64,29.72Z"/><path class="cls-1" d="M34.56,64a5.1,5.1,0,0,1-2.35-2,.08.08,0,0,0-.14,0,5.06,5.06,0,0,1-2.35,2c-.08,0,0,.15,0,.16.8,0,1.6.08,2.39.08s1.59,0,2.39-.08C34.61,64.19,34.64,64.07,34.56,64Z"/><path class="cls-1" d="M.24,34.56a5.1,5.1,0,0,1,2-2.35.08.08,0,0,0,0-.14,5.06,5.06,0,0,1-2-2.35.08.08,0,0,0-.15,0C0,30.55,0,31.35,0,32.14s0,1.59.09,2.39A.08.08,0,0,0,.24,34.56Z"/><path class="cls-1" d="M29.72.24a5.06,5.06,0,0,1,2.35,2,.08.08,0,0,0,.14,0,5.1,5.1,0,0,1,2.35-2,.08.08,0,0,0,0-.15C33.73,0,32.93,0,32.14,0s-1.59,0-2.39.09A.08.08,0,0,0,29.72.24Z"/><circle class="cls-1" cx="11.16" cy="11.15" r="1.38"/><circle class="cls-1" cx="53.13" cy="11.15" r="1.38"/><circle class="cls-1" cx="11.16" cy="53.13" r="1.38"/><circle class="cls-1" cx="53.13" cy="53.13" r="1.38"/><text class="cls-2" transform="translate(81.77 26.58)">HOUSE OF <tspan class="cls-3"><tspan x="0" y="27.12">K</tspan><tspan class="cls-4" x="14.4" y="27.12">ANA</tspan><tspan x="62.7" y="27.12">K</tspan><tspan class="cls-5" x="77.09" y="27.12">A</tspan><tspan class="cls-4" x="92.76" y="27.12">MBA</tspan><tspan class="cls-6" x="142.77" y="27.12">R</tspan><tspan class="cls-7" x="156.97" y="27.12">A</tspan><tspan class="cls-4" x="172.63" y="27.12">M</tspan></tspan></text></g></g></svg>